<svg xmlns="http://www.w3.org/2000/svg" xmlns:xlink="http://www.w3.org/1999/xlink" viewBox="0 0 59.77 68.43"><defs><style>.cls-1{fill:none;}.cls-2{isolation:isolate;}.cls-3{fill:#93278f;}.cls-4{mix-blend-mode:overlay;}.cls-5{clip-path:url(#clip-path);}.cls-6{fill:#d4145a;}.cls-7{fill:#d3145b;}.cls-8{fill:#d2155b;}.cls-9{fill:#d2155c;}.cls-10{fill:#d1155d;}.cls-11{fill:#d0155d;}.cls-12{fill:#cf155e;}.cls-13{fill:#ce165f;}.cls-14{fill:#cd1660;}.cls-15{fill:#cc1661;}.cls-16{fill:#cb1761;}.cls-17{fill:#ca1762;}.cls-18{fill:#c91763;}.cls-19{fill:#c81764;}.cls-20{fill:#c71864;}.cls-21{fill:#c61865;}.cls-22{fill:#c51866;}.cls-23{fill:#c41967;}.cls-24{fill:#c31967;}.cls-25{fill:#c21968;}.cls-26{fill:#c21969;}.cls-27{fill:#c11a6a;}.cls-28{fill:#c01a6b;}.cls-29{fill:#bf1a6c;}.cls-30{fill:#bd1b6c;}.cls-31{fill:#bc1b6d;}.cls-32{fill:#bb1b6e;}.cls-33{fill:#ba1b6f;}.cls-34{fill:#b91c70;}.cls-35{fill:#b81c71;}.cls-36{fill:#b71c71;}.cls-37{fill:#b61d72;}.cls-38{fill:#b51d73;}.cls-39{fill:#b41d74;}.cls-40{fill:#b31e75;}.cls-41{fill:#b21e76;}.cls-42{fill:#b11e77;}.cls-43{fill:#b01f78;}.cls-44{fill:#af1f78;}.cls-45{fill:#ae1f79;}.cls-46{fill:#ac207a;}.cls-47{fill:#ab207b;}.cls-48{fill:#aa207c;}.cls-49{fill:#a9217d;}.cls-50{fill:#a8217e;}.cls-51{fill:#a7217f;}.cls-52{fill:#a62280;}.cls-53{fill:#a52281;}.cls-54{fill:#a32282;}.cls-55{fill:#a22383;}.cls-56{fill:#a12384;}.cls-57{fill:#a02384;}.cls-58{fill:#9f2485;}.cls-59{fill:#9e2486;}.cls-60{fill:#9c2487;}.cls-61{fill:#9b2588;}.cls-62{fill:#9a2589;}.cls-63{fill:#99258a;}.cls-64{fill:#98268b;}.cls-65{fill:#97268c;}.cls-66{fill:#95268d;}.cls-67{fill:#94278e;}</style><clipPath id="clip-path"><path class="cls-1" d="M54.49,42.39c-3.51,14.4-18.34,24.89-20,26,2-3.08,2.16-5,1.83-9.84-.43-6.27-.26-13.51,7.21-20-7.72-1-15.75,4-23.26-1.19A22.68,22.68,0,0,1,17,34.62c-3.49-3.69-2.38-9.44-5.88-13.12-2.65-2.81-7.51-.35-9.78-4.09C1.16,17.17,0,15,4.58,11.66A27.29,27.29,0,0,1,10.84,8.5C39.16,0,59.77,20.72,54.49,42.39Z"/></clipPath></defs><title>Asset 1</title><g class="cls-2"><g id="Layer_2" data-name="Layer 2"><g id="Capa_1" data-name="Capa 1"><path class="cls-3" d="M46.42,61.9c-.36.6-.83,1.39-1.17,2a15.46,15.46,0,0,0,2.89-2.64,35.12,35.12,0,0,0,3.18-4.1,36.12,36.12,0,0,0,2.94-5.3,35.31,35.31,0,0,0,2-5.61,35.95,35.95,0,0,0,1.14-11.84,40.66,40.66,0,0,0-1.5-8.07,35.06,35.06,0,0,0-2.28-5.74,35.26,35.26,0,0,0-3.13-5.15,34.67,34.67,0,0,0-3.9-4.5A34.63,34.63,0,0,0,42,7.14a37.21,37.21,0,0,0-5.19-3l-1.35-.61a30.35,30.35,0,0,0-17.75-.63c5.38,2.47,11.83,1,16.9,4.65,4.4,3.15,6.11,8.4,9.61,12.25,2.38,2.63,6.42,4,8.27,7C58.36,36.21,51.55,53.41,46.42,61.9Z"/><g class="cls-4"><g class="cls-5"><polygon class="cls-6" points="48.91 68.43 59.77 62.55 59.77 68.43 48.91 68.43"/><polygon class="cls-6" points="46.58 68.43 59.77 61.29 59.77 62.55 48.91 68.43 46.58 68.43"/><polygon class="cls-6" points="44.25 68.43 59.77 60.03 59.77 61.29 46.58 68.43 44.25 68.43"/><polygon class="cls-7" points="41.93 68.43 59.77 58.78 59.77 60.03 44.25 68.43 41.93 68.43"/><polygon class="cls-8" points="39.6 68.43 59.77 57.52 59.77 58.78 41.93 68.43 39.6 68.43"/><polygon class="cls-9" points="37.28 68.43 59.77 56.26 59.77 57.52 39.6 68.43 37.28 68.43"/><polygon class="cls-10" points="34.95 68.43 59.77 55 59.77 56.26 37.28 68.43 34.95 68.43"/><polygon class="cls-11" points="32.63 68.43 59.77 53.74 59.77 55 34.95 68.43 32.63 68.43"/><polygon class="cls-12" points="30.3 68.43 59.77 52.48 59.77 53.74 32.63 68.43 30.3 68.43"/><polygon class="cls-13" points="27.98 68.43 59.77 51.22 59.77 52.48 30.3 68.43 27.98 68.43"/><polygon class="cls-13" points="26.63 68.43 26.41 68.02 59.77 49.97 59.77 51.22 27.98 68.43 26.63 68.43"/><polygon class="cls-14" points="26.41 68.02 25.88 67.05 59.77 48.71 59.77 49.97 26.41 68.02"/><polygon class="cls-15" points="25.88 67.05 25.35 66.08 59.77 47.45 59.77 48.71 25.88 67.05"/><polygon class="cls-16" points="25.35 66.08 24.82 65.1 59.77 46.19 59.77 47.45 25.35 66.08"/><polygon class="cls-17" points="24.82 65.1 24.3 64.13 59.77 44.93 59.77 46.19 24.82 65.1"/><polygon class="cls-18" points="24.3 64.13 23.77 63.16 59.77 43.67 59.77 44.93 24.3 64.13"/><polygon class="cls-19" points="23.77 63.16 23.24 62.18 59.77 42.41 59.77 43.67 23.77 63.16"/><polygon class="cls-20" points="23.24 62.18 22.72 61.21 59.77 41.15 59.77 42.41 23.24 62.18"/><polygon class="cls-21" points="22.72 61.21 22.19 60.23 59.77 39.89 59.77 41.15 22.72 61.21"/><polygon class="cls-22" points="22.19 60.23 21.66 59.26 59.77 38.63 59.77 39.89 22.19 60.23"/><polygon class="cls-23" points="21.66 59.26 21.14 58.29 59.77 37.38 59.77 38.63 21.66 59.26"/><polygon class="cls-24" points="21.14 58.29 20.61 57.31 59.77 36.12 59.77 37.38 21.14 58.29"/><polygon class="cls-25" points="20.61 57.31 20.08 56.34 59.77 34.86 59.77 36.12 20.61 57.31"/><polygon class="cls-26" points="20.08 56.34 19.55 55.37 59.77 33.6 59.77 34.86 20.08 56.34"/><polygon class="cls-27" points="19.55 55.37 19.03 54.39 59.77 32.34 59.77 33.6 19.55 55.37"/><polygon class="cls-28" points="19.03 54.39 18.5 53.42 59.77 31.08 59.77 32.34 19.03 54.39"/><polygon class="cls-29" points="18.5 53.42 17.97 52.45 59.77 29.82 59.77 31.08 18.5 53.42"/><polygon class="cls-30" points="17.97 52.45 17.45 51.47 59.77 28.56 59.77 29.82 17.97 52.45"/><polygon class="cls-31" points="17.45 51.47 16.92 50.5 59.77 27.3 59.77 28.56 17.45 51.47"/><polygon class="cls-32" points="16.92 50.5 16.39 49.52 59.77 26.05 59.77 27.3 16.92 50.5"/><polygon class="cls-33" points="16.39 49.52 15.87 48.55 59.77 24.79 59.77 26.05 16.39 49.52"/><polygon class="cls-34" points="15.87 48.55 15.34 47.58 59.77 23.53 59.77 24.79 15.87 48.55"/><polygon class="cls-35" points="15.34 47.58 14.81 46.6 59.77 22.27 59.77 23.53 15.34 47.58"/><polygon class="cls-36" points="14.81 46.6 14.29 45.63 59.77 21.01 59.77 22.27 14.81 46.6"/><polygon class="cls-37" points="14.29 45.63 13.76 44.66 59.77 19.75 59.77 21.01 14.29 45.63"/><polygon class="cls-38" points="13.76 44.66 13.23 43.68 59.77 18.49 59.77 19.75 13.76 44.66"/><polygon class="cls-39" points="13.23 43.68 12.7 42.71 59.77 17.23 59.77 18.49 13.23 43.68"/><polygon class="cls-40" points="12.7 42.71 12.18 41.74 59.54 16.1 59.77 16.52 59.77 17.23 12.7 42.71"/><rect class="cls-41" x="8.67" y="27.88" width="53.86" height="1.11" transform="translate(-9.24 20.37) rotate(-28.43)"/><rect class="cls-42" x="8.14" y="26.9" width="53.86" height="1.11" transform="translate(-8.84 20) rotate(-28.43)"/><rect class="cls-43" x="7.61" y="25.93" width="53.86" height="1.11" transform="translate(-8.44 19.64) rotate(-28.43)"/><rect class="cls-44" x="7.09" y="24.96" width="53.86" height="1.11" transform="translate(-8.04 19.27) rotate(-28.43)"/><rect class="cls-45" x="6.56" y="23.98" width="53.86" height="1.11" transform="translate(-7.64 18.9) rotate(-28.43)"/><rect class="cls-46" x="6.03" y="23.01" width="53.86" height="1.11" transform="translate(-7.24 18.53) rotate(-28.43)"/><rect class="cls-47" x="5.5" y="22.04" width="53.86" height="1.11" transform="translate(-6.84 18.16) rotate(-28.43)"/><rect class="cls-48" x="4.98" y="21.06" width="53.86" height="1.11" transform="translate(-6.44 17.79) rotate(-28.43)"/><rect class="cls-49" x="4.45" y="20.09" width="53.86" height="1.11" transform="translate(-6.04 17.43) rotate(-28.43)"/><rect class="cls-50" x="3.92" y="19.11" width="53.86" height="1.11" transform="translate(-5.64 17.06) rotate(-28.43)"/><rect class="cls-51" x="3.4" y="18.14" width="53.86" height="1.11" transform="translate(-5.24 16.69) rotate(-28.43)"/><rect class="cls-52" x="2.87" y="17.17" width="53.86" height="1.11" transform="translate(-4.84 16.32) rotate(-28.43)"/><rect class="cls-53" x="2.34" y="16.19" width="53.86" height="1.11" transform="translate(-4.44 15.95) rotate(-28.43)"/><rect class="cls-54" x="1.82" y="15.22" width="53.86" height="1.11" transform="translate(-4.04 15.58) rotate(-28.43)"/><rect class="cls-55" x="1.29" y="14.25" width="53.86" height="1.11" transform="translate(-3.64 15.22) rotate(-28.43)"/><rect class="cls-56" x="0.76" y="13.27" width="53.86" height="1.11" transform="translate(-3.24 14.85) rotate(-28.43)"/><polygon class="cls-57" points="3.75 26.16 3.22 25.18 49.74 0 50.83 0 51.11 0.52 3.75 26.16"/><polygon class="cls-58" points="3.22 25.18 2.69 24.21 47.42 0 49.74 0 3.22 25.18"/><polygon class="cls-59" points="2.69 24.21 2.16 23.24 45.09 0 47.42 0 2.69 24.21"/><polygon class="cls-60" points="2.16 23.24 1.64 22.26 42.77 0 45.09 0 2.16 23.24"/><polygon class="cls-61" points="1.64 22.26 1.11 21.29 40.44 0 42.77 0 1.64 22.26"/><polygon class="cls-62" points="1.11 21.29 0.58 20.32 38.12 0 40.44 0 1.11 21.29"/><polygon class="cls-63" points="0.58 20.32 0.06 19.34 35.79 0 38.12 0 0.58 20.32"/><polygon class="cls-64" points="0.06 19.34 0 19.24 0 18.11 33.47 0 35.79 0 0.06 19.34"/><polygon class="cls-65" points="0 16.86 31.14 0 33.47 0 0 18.11 0 16.86"/><polygon class="cls-66" points="0 15.6 28.81 0 31.14 0 0 16.86 0 15.6"/><polygon class="cls-67" points="0 14.34 26.49 0 28.81 0 0 15.6 0 14.34"/><polygon class="cls-3" points="0 13.08 24.16 0 26.49 0 0 14.34 0 13.08"/><polygon class="cls-3" points="24.16 0 0 13.08 0 0 24.16 0"/></g></g></g></g></g></svg>