<svg xmlns="http://www.w3.org/2000/svg" xmlns:xlink="http://www.w3.org/1999/xlink" viewBox="0 0 63.48 92.8"><defs><style>.cls-1{isolation:isolate;}.cls-2{fill:url(#linear-gradient);}.cls-3{fill:url(#linear-gradient-2);}.cls-4{opacity:0.86;mix-blend-mode:overlay;}.cls-5{fill:url(#linear-gradient-3);}</style><linearGradient id="linear-gradient" x1="2027.24" y1="-112.75" x2="2051.47" y2="-112.75" gradientTransform="matrix(-0.98, -0.2, -0.2, 0.98, 1985.36, 573.44)" gradientUnits="userSpaceOnUse"><stop offset="0" stop-color="#005117"/><stop offset="0.28" stop-color="#005c42"/><stop offset="0.89" stop-color="#0079ad"/><stop offset="1" stop-color="#007ec0"/></linearGradient><linearGradient id="linear-gradient-2" x1="2005.76" y1="-88.82" x2="2019.15" y2="-130.77" gradientTransform="matrix(-0.98, -0.2, -0.2, 0.98, 1985.36, 573.44)" gradientUnits="userSpaceOnUse"><stop offset="0" stop-color="#00c28d"/><stop offset="0.64" stop-color="#0098ad"/><stop offset="1" stop-color="#007ec0"/></linearGradient><linearGradient id="linear-gradient-3" x1="2033.73" y1="-164.17" x2="2030.25" y2="-93.47" gradientTransform="matrix(-0.98, -0.2, -0.2, 0.98, 1985.36, 573.44)" gradientUnits="userSpaceOnUse"><stop offset="0" stop-color="#00c28d"/><stop offset="0.43" stop-color="#2bbab4"/><stop offset="1" stop-color="#68aeed"/></linearGradient></defs><title>Asset 4</title><g class="cls-1"><g id="Layer_2" data-name="Layer 2"><g id="Capa_1" data-name="Capa 1"><path class="cls-2" d="M5.1,64.76C7.5,76.59,11.82,81.79,16,86.1c-1.45-1.47-3.33-3.5-4.68-5.07a50.77,50.77,0,0,1-4.55-6.66,49,49,0,0,1-3.43-7.25,49.33,49.33,0,0,1-2.27-7.69A51.19,51.19,0,0,1,.34,43.2c.37-2.39,1-5.56,1.54-7.92C3.59,30,3.59,30,4.78,27.37a49,49,0,0,1,4-7.15,48.21,48.21,0,0,1,5-6.31L16,11.81C4.65,22.75,1.57,47.32,5.1,64.76Z"/><path class="cls-3" d="M41.32,84.76C35.42,91.18,4.6,70.07,4.11,44.12,3.61,17.27,29.68-2,63.48.17c-13,4.39-13.07,7.44-13.12,9.67C50,23.06,50,26.61,30.88,36.37c-5.78,3-6.91,3.82-9.64,5.89,24.88,3.21,25.43,36.6,20.08,42.5Z"/><g class="cls-4"><path class="cls-5" d="M18,87.81a39.13,39.13,0,0,0,7.67,5C16.33,85,9,78.79.76,53.1-.91,47.86,8,50.18,11.37,48.24a17.09,17.09,0,0,0,3.28-2.59C21,39.33,20.22,29.18,26.92,23.08c5.23-4.77,14.12-1.9,18.34-8.78.73-1.19.09-5.21-8.37-7.69-10.61-2-16.33,1.32-20.94,5.2l-2.09,2.1a48.69,48.69,0,0,0-5,6.31,47.64,47.64,0,0,0-4,7.15,47.73,47.73,0,0,0-2.9,7.91C1.33,37.64.71,40.81.34,43.2a51.19,51.19,0,0,0,.77,16.23,49.41,49.41,0,0,0,2.27,7.69,50.47,50.47,0,0,0,3.43,7.25A51.44,51.44,0,0,0,11.36,81c1.36,1.57,3.22,3.6,4.68,5.07.58.52,1.33,1.22,1.92,1.71Z"/></g></g></g></g></svg>