<svg xmlns="http://www.w3.org/2000/svg" xmlns:xlink="http://www.w3.org/1999/xlink" viewBox="0 0 72.61 98.88"><defs><style>.cls-1{fill:none;}.cls-2{isolation:isolate;}.cls-3{fill:#922c3d;}.cls-4{fill:#db2c3d;}.cls-5{mix-blend-mode:overlay;}.cls-6{clip-path:url(#clip-path);}.cls-7{fill:#db2d3d;}.cls-8{fill:#dc2e3c;}.cls-9{fill:#dc2f3c;}.cls-10{fill:#dd303c;}.cls-11{fill:#dd313b;}.cls-12{fill:#de323b;}.cls-13{fill:#de333b;}.cls-14{fill:#de343a;}.cls-15{fill:#df353a;}.cls-16{fill:#df3639;}.cls-17{fill:#e03739;}.cls-18{fill:#e03839;}.cls-19{fill:#e03938;}.cls-20{fill:#e13a38;}.cls-21{fill:#e13b38;}.cls-22{fill:#e23c37;}.cls-23{fill:#e23d37;}.cls-24{fill:#e23e37;}.cls-25{fill:#e33f36;}.cls-26{fill:#e44036;}.cls-27{fill:#e44135;}.cls-28{fill:#e44235;}.cls-29{fill:#e54335;}.cls-30{fill:#e54434;}.cls-31{fill:#e64534;}.cls-32{fill:#e64634;}.cls-33{fill:#e74733;}.cls-34{fill:#e74833;}.cls-35{fill:#e74933;}.cls-36{fill:#e84a32;}.cls-37{fill:#e84b32;}.cls-38{fill:#e94c32;}.cls-39{fill:#e94d31;}.cls-40{fill:#ea4e31;}.cls-41{fill:#ea4f30;}.cls-42{fill:#ea5130;}.cls-43{fill:#eb5230;}.cls-44{fill:#eb532f;}.cls-45{fill:#ec542f;}.cls-46{fill:#ec552f;}.cls-47{fill:#ed562e;}.cls-48{fill:#ed572e;}.cls-49{fill:#ee582d;}.cls-50{fill:#ee592d;}.cls-51{fill:#ef5a2d;}.cls-52{fill:#ef5b2c;}.cls-53{fill:#ef5c2c;}.cls-54{fill:#f05d2c;}.cls-55{fill:#f05f2b;}.cls-56{fill:#f1602b;}.cls-57{fill:#f1612a;}.cls-58{fill:#f2622a;}.cls-59{fill:#f2632a;}.cls-60{fill:#f36429;}.cls-61{fill:#f36529;}.cls-62{fill:#f46628;}.cls-63{fill:#f46728;}.cls-64{fill:#f56928;}.cls-65{fill:#f56a27;}.cls-66{fill:#f66b27;}.cls-67{fill:#f66c26;}.cls-68{fill:#f76d26;}.cls-69{fill:#f76e26;}.cls-70{fill:#f86f25;}.cls-71{fill:#f87125;}.cls-72{fill:#f97224;}.cls-73{fill:#f97324;}.cls-74{fill:#fa7424;}.cls-75{fill:#fa7523;}.cls-76{fill:#fb7623;}.cls-77{fill:#fb7822;}.cls-78{fill:#fb7922;}.cls-79{fill:#fc7a22;}.cls-80{fill:#fc7b21;}.cls-81{fill:#fd7c21;}.cls-82{fill:#fd7d20;}.cls-83{fill:#fe7f20;}.cls-84{fill:#fe801f;}.cls-85{fill:#ff811f;}</style><clipPath id="clip-path"><path class="cls-1" d="M.11,73.92c.05,4.8.1,9.77,23.78,6.91,6.21-.75,20.74-2.51,31.42-13.59.63-.65,1.4-1.57,2-2.24C51.42,87.27,29.67,98.51,17.2,98.5a47.76,47.76,0,0,0,8.8,0l1.7-.18a51.06,51.06,0,0,0,15.1-4.3c18-9.14,28.27-23.51,29.74-43.88a46.88,46.88,0,0,0-.22-8,48.59,48.59,0,0,0-1.43-7.76c-.51-1.64-1.18-3.84-1.78-5.45,2.28,7.14.16,13.26-5.79,25.16C72.17,21.67,40.51.19,40.18,0a5.24,5.24,0,0,0-.51.54c-1.58,2.35.86,5.37-1.27,7.63-3.14,3.31-7.68,5.1-10,9.28-.91,1.64-1.16,2.09-1.3,6.05-.4,10.7,7.53,17.92,11.21,26.91C15.27,38,0,62.87.11,73.92Z"/></clipPath></defs><title>Asset 2</title><g class="cls-2"><g id="Layer_2" data-name="Layer 2"><g id="Capa_1" data-name="Capa 1"><path class="cls-3" d="M63.13,76.61a7.61,7.61,0,0,0-.69-1.88c-2.31-4.15-1.16-10.09.73-19.93,2.1-11,2.6-13.58-3.58-21.61-2.1-2.73-4.71-6.14-4.52-9.26.27-4.56,7.37-3.66,11.19.4A14.12,14.12,0,0,1,69,28.69c.57,1.62,1.31,3.79,1.78,5.44a49.5,49.5,0,0,1,1.44,7.76,54,54,0,0,1,.21,8c-.43,4.71-.54,6-1.06,8a64.79,64.79,0,0,1-2.4,8c-.88,2-2.12,4.68-3.15,6.63C65,73.86,63.92,75.66,63,77l.12-.36Z"/><path class="cls-4" d="M27.85,98.33C42.7,96.27,53.18,88,58.11,83.25L55.9,85.38a53.92,53.92,0,0,1-6.23,4.85,51.23,51.23,0,0,1-6.87,3.82,51.8,51.8,0,0,1-7.37,2.73,47.57,47.57,0,0,1-7.73,1.57l-1.7.18c.55-.06,1.3-.12,1.85-.2Z"/><g class="cls-5"><g class="cls-6"><polygon class="cls-4" points="0 88.07 10.05 98.88 0 98.88 0 88.07"/><polygon class="cls-4" points="0 86.58 11.44 98.88 10.05 98.88 0 88.07 0 86.58"/><polygon class="cls-4" points="0 85.09 12.83 98.88 11.44 98.88 0 86.58 0 85.09"/><polygon class="cls-7" points="0 83.59 14.21 98.88 12.83 98.88 0 85.09 0 83.59"/><polygon class="cls-8" points="0 82.1 15.6 98.88 14.21 98.88 0 83.59 0 82.1"/><polygon class="cls-8" points="0 80.61 16.99 98.88 15.6 98.88 0 82.1 0 80.61"/><polygon class="cls-9" points="0 79.12 18.38 98.88 16.99 98.88 0 80.61 0 79.12"/><polygon class="cls-10" points="0 77.63 19.76 98.88 18.38 98.88 0 79.12 0 77.63"/><polygon class="cls-11" points="0 76.13 21.15 98.88 19.76 98.88 0 77.63 0 76.13"/><polygon class="cls-11" points="0 74.64 22.54 98.88 21.15 98.88 0 76.13 0 74.64"/><polygon class="cls-12" points="0 73.15 23.93 98.88 22.54 98.88 0 74.64 0 73.15"/><polygon class="cls-13" points="0 71.66 25.31 98.88 23.93 98.88 0 73.15 0 71.66"/><polygon class="cls-14" points="0 70.17 26.7 98.88 25.31 98.88 0 71.66 0 70.17"/><polygon class="cls-15" points="0 68.67 28.09 98.88 26.7 98.88 0 70.17 0 68.67"/><polygon class="cls-15" points="0 67.18 29.48 98.88 28.09 98.88 0 68.67 0 67.18"/><polygon class="cls-16" points="0 65.69 30.86 98.88 29.48 98.88 0 67.18 0 65.69"/><polygon class="cls-17" points="0 64.2 32.25 98.88 30.86 98.88 0 65.69 0 64.2"/><polygon class="cls-18" points="0 62.7 33.64 98.88 32.25 98.88 0 64.2 0 62.7"/><polygon class="cls-19" points="0 61.21 35.02 98.88 33.64 98.88 0 62.7 0 61.21"/><polygon class="cls-20" points="0 59.72 36.41 98.88 35.02 98.88 0 61.21 0 59.72"/><polygon class="cls-21" points="0 58.23 37.8 98.88 36.41 98.88 0 59.72 0 58.23"/><polygon class="cls-22" points="0 56.73 39.19 98.88 37.8 98.88 0 58.23 0 56.73"/><polygon class="cls-23" points="0 55.24 40.57 98.88 39.19 98.88 0 56.73 0 55.24"/><polygon class="cls-24" points="0 53.75 41.96 98.88 40.57 98.88 0 55.24 0 53.75"/><polygon class="cls-25" points="0 52.26 43.35 98.88 41.96 98.88 0 53.75 0 52.26"/><polygon class="cls-25" points="0 50.77 44.74 98.88 43.35 98.88 0 52.26 0 50.77"/><polygon class="cls-26" points="0 49.27 46.12 98.88 44.74 98.88 0 50.77 0 49.27"/><polygon class="cls-27" points="0 47.78 47.51 98.88 46.12 98.88 0 49.27 0 47.78"/><polygon class="cls-28" points="0 46.29 48.82 98.8 48.73 98.88 47.51 98.88 0 47.78 0 46.29"/><polygon class="cls-29" points="0 44.8 49.57 98.11 48.82 98.8 0 46.29 0 44.8"/><polygon class="cls-30" points="0 43.3 50.31 97.42 49.57 98.11 0 44.8 0 43.3"/><polygon class="cls-31" points="0 41.81 51.05 96.72 50.31 97.42 0 43.3 0 41.81"/><polygon class="cls-32" points="0 40.32 51.8 96.03 51.05 96.72 0 41.81 0 40.32"/><polygon class="cls-33" points="0 38.83 52.54 95.34 51.8 96.03 0 40.32 0 38.83"/><polygon class="cls-34" points="0 37.34 53.29 94.65 52.54 95.34 0 38.83 0 37.34"/><polygon class="cls-35" points="0 35.84 54.03 93.96 53.29 94.65 0 37.34 0 35.84"/><polygon class="cls-36" points="0 34.63 0.14 34.5 54.77 93.27 54.03 93.96 0 35.84 0 34.63"/><rect class="cls-37" x="27.32" y="23.41" width="1.02" height="80.24" transform="translate(-35.81 35.95) rotate(-42.91)"/><rect class="cls-38" x="28.06" y="22.72" width="1.02" height="80.24" transform="translate(-35.14 36.27) rotate(-42.91)"/><rect class="cls-39" x="28.81" y="22.03" width="1.02" height="80.24" transform="translate(-34.47 36.6) rotate(-42.91)"/><rect class="cls-40" x="29.55" y="21.34" width="1.02" height="80.24" transform="translate(-33.8 36.92) rotate(-42.91)"/><rect class="cls-41" x="30.3" y="20.65" width="1.02" height="80.24" transform="translate(-33.13 37.24) rotate(-42.91)"/><rect class="cls-42" x="31.04" y="19.96" width="1.02" height="80.24" transform="translate(-32.46 37.56) rotate(-42.91)"/><rect class="cls-43" x="31.79" y="19.26" width="1.02" height="80.24" transform="translate(-31.79 37.88) rotate(-42.91)"/><rect class="cls-44" x="32.53" y="18.57" width="1.02" height="80.24" transform="translate(-31.12 38.2) rotate(-42.91)"/><rect class="cls-45" x="33.27" y="17.88" width="1.02" height="80.24" transform="translate(-30.45 38.53) rotate(-42.91)"/><rect class="cls-46" x="34.02" y="17.19" width="1.02" height="80.24" transform="translate(-29.78 38.85) rotate(-42.91)"/><rect class="cls-47" x="34.76" y="16.5" width="1.02" height="80.24" transform="translate(-29.11 39.17) rotate(-42.91)"/><rect class="cls-48" x="35.51" y="15.8" width="1.02" height="80.24" transform="translate(-28.44 39.49) rotate(-42.91)"/><rect class="cls-49" x="36.25" y="15.11" width="1.02" height="80.24" transform="translate(-27.77 39.81) rotate(-42.91)"/><rect class="cls-50" x="36.99" y="14.42" width="1.02" height="80.24" transform="translate(-27.1 40.13) rotate(-42.91)"/><rect class="cls-51" x="37.74" y="13.73" width="1.02" height="80.24" transform="translate(-26.43 40.45) rotate(-42.91)"/><rect class="cls-52" x="38.48" y="13.04" width="1.02" height="80.24" transform="translate(-25.76 40.78) rotate(-42.91)"/><rect class="cls-53" x="39.23" y="12.34" width="1.02" height="80.24" transform="translate(-25.09 41.1) rotate(-42.91)"/><rect class="cls-54" x="39.97" y="11.65" width="1.02" height="80.24" transform="translate(-24.42 41.42) rotate(-42.91)"/><rect class="cls-55" x="40.72" y="10.96" width="1.02" height="80.24" transform="translate(-23.75 41.74) rotate(-42.91)"/><rect class="cls-56" x="41.46" y="10.27" width="1.02" height="80.24" transform="translate(-23.08 42.06) rotate(-42.91)"/><rect class="cls-57" x="42.2" y="9.58" width="1.02" height="80.24" transform="translate(-22.41 42.38) rotate(-42.91)"/><rect class="cls-58" x="42.95" y="8.89" width="1.02" height="80.24" transform="translate(-21.74 42.71) rotate(-42.91)"/><rect class="cls-59" x="43.69" y="8.19" width="1.02" height="80.24" transform="translate(-21.07 43.03) rotate(-42.91)"/><polygon class="cls-60" points="17.25 18.59 18 17.89 72.61 76.63 72.61 76.69 71.89 77.35 17.25 18.59"/><polygon class="cls-61" points="18 17.89 18.74 17.2 72.61 75.14 72.61 76.63 18 17.89"/><polygon class="cls-62" points="18.74 17.2 19.48 16.51 72.61 73.65 72.61 75.14 18.74 17.2"/><polygon class="cls-63" points="19.48 16.51 20.23 15.82 72.61 72.15 72.61 73.65 19.48 16.51"/><polygon class="cls-64" points="20.23 15.82 20.97 15.13 72.61 70.66 72.61 72.15 20.23 15.82"/><polygon class="cls-65" points="20.97 15.13 21.72 14.43 72.61 69.17 72.61 70.66 20.97 15.13"/><polygon class="cls-66" points="21.72 14.43 22.46 13.74 72.61 67.68 72.61 69.17 21.72 14.43"/><polygon class="cls-67" points="22.46 13.74 23.21 13.05 72.61 66.19 72.61 67.68 22.46 13.74"/><polygon class="cls-68" points="23.21 13.05 23.95 12.36 72.61 64.69 72.61 66.19 23.21 13.05"/><polygon class="cls-69" points="23.95 12.36 24.69 11.67 72.61 63.2 72.61 64.69 23.95 12.36"/><polygon class="cls-70" points="24.69 11.67 25.44 10.97 72.61 61.71 72.61 63.2 24.69 11.67"/><polygon class="cls-71" points="25.44 10.97 26.18 10.28 72.61 60.22 72.61 61.71 25.44 10.97"/><polygon class="cls-72" points="26.18 10.28 26.93 9.59 72.61 58.72 72.61 60.22 26.18 10.28"/><polygon class="cls-73" points="26.93 9.59 27.67 8.9 72.61 57.23 72.61 58.72 26.93 9.59"/><polygon class="cls-74" points="27.67 8.9 28.41 8.21 72.61 55.74 72.61 57.23 27.67 8.9"/><polygon class="cls-75" points="28.41 8.21 29.16 7.52 72.61 54.25 72.61 55.74 28.41 8.21"/><polygon class="cls-76" points="29.16 7.52 29.9 6.82 72.61 52.76 72.61 54.25 29.16 7.52"/><polygon class="cls-77" points="29.9 6.82 30.65 6.13 72.61 51.26 72.61 52.76 29.9 6.82"/><polygon class="cls-78" points="30.65 6.13 31.39 5.44 72.61 49.77 72.61 51.26 30.65 6.13"/><polygon class="cls-79" points="31.39 5.44 32.14 4.75 72.61 48.28 72.61 49.77 31.39 5.44"/><polygon class="cls-80" points="32.14 4.75 32.88 4.06 72.61 46.79 72.61 48.28 32.14 4.75"/><polygon class="cls-81" points="32.88 4.06 33.62 3.36 72.61 45.29 72.61 46.79 32.88 4.06"/><polygon class="cls-82" points="33.62 3.36 34.37 2.67 72.61 43.8 72.61 45.29 33.62 3.36"/><polygon class="cls-83" points="34.37 2.67 35.11 1.98 72.61 42.31 72.61 43.8 34.37 2.67"/><polygon class="cls-84" points="35.11 1.98 35.86 1.29 72.61 40.82 72.61 42.31 35.11 1.98"/><polygon class="cls-85" points="35.86 1.29 36.6 0.6 72.61 39.32 72.61 40.82 35.86 1.29"/><polygon class="cls-85" points="36.6 0.6 37.24 0 72.61 0 72.61 39.32 36.6 0.6"/></g></g></g></g></g></svg>