<svg xmlns="http://www.w3.org/2000/svg" xmlns:xlink="http://www.w3.org/1999/xlink" viewBox="0 0 133.57 173.54"><defs><style>.cls-1{fill:none;}.cls-2{isolation:isolate;}.cls-3{fill:#93278f;}.cls-386,.cls-4{mix-blend-mode:overlay;}.cls-5{clip-path:url(#clip-path);}.cls-6{fill:#d4145a;}.cls-7{fill:#d3145b;}.cls-8{fill:#d2155b;}.cls-9{fill:#d2155c;}.cls-10{fill:#d1155d;}.cls-11{fill:#d0155d;}.cls-12{fill:#cf155e;}.cls-13{fill:#ce165f;}.cls-14{fill:#cd1660;}.cls-15{fill:#cc1661;}.cls-16{fill:#cb1761;}.cls-17{fill:#ca1762;}.cls-18{fill:#c91763;}.cls-19{fill:#c81764;}.cls-20{fill:#c71864;}.cls-21{fill:#c61865;}.cls-22{fill:#c51866;}.cls-23{fill:#c41967;}.cls-24{fill:#c31967;}.cls-25{fill:#c21968;}.cls-26{fill:#c21969;}.cls-27{fill:#c11a6a;}.cls-28{fill:#c01a6b;}.cls-29{fill:#bf1a6c;}.cls-30{fill:#bd1b6c;}.cls-31{fill:#bc1b6d;}.cls-32{fill:#bb1b6e;}.cls-33{fill:#ba1b6f;}.cls-34{fill:#b91c70;}.cls-35{fill:#b81c71;}.cls-36{fill:#b71c71;}.cls-37{fill:#b61d72;}.cls-38{fill:#b51d73;}.cls-39{fill:#b41d74;}.cls-40{fill:#b31e75;}.cls-41{fill:#b21e76;}.cls-42{fill:#b11e77;}.cls-43{fill:#b01f78;}.cls-44{fill:#af1f78;}.cls-45{fill:#ae1f79;}.cls-46{fill:#ac207a;}.cls-47{fill:#ab207b;}.cls-48{fill:#aa207c;}.cls-49{fill:#a9217d;}.cls-50{fill:#a8217e;}.cls-51{fill:#a7217f;}.cls-52{fill:#a62280;}.cls-53{fill:#a52281;}.cls-54{fill:#a32282;}.cls-55{fill:#a22383;}.cls-56{fill:#a12384;}.cls-57{fill:#a02384;}.cls-58{fill:#9f2485;}.cls-59{fill:#9e2486;}.cls-60{fill:#9c2487;}.cls-61{fill:#9b2588;}.cls-62{fill:#9a2589;}.cls-63{fill:#99258a;}.cls-64{fill:#98268b;}.cls-65{fill:#97268c;}.cls-66{fill:#95268d;}.cls-67{fill:#94278e;}.cls-68{fill:#922c3d;}.cls-69{fill:#db2c3d;}.cls-70{clip-path:url(#clip-path-2);}.cls-71{fill:#db2d3d;}.cls-72{fill:#dc2e3c;}.cls-73{fill:#dc2f3c;}.cls-74{fill:#dd303c;}.cls-75{fill:#dd313b;}.cls-76{fill:#de323b;}.cls-77{fill:#de333b;}.cls-78{fill:#de343a;}.cls-79{fill:#df353a;}.cls-80{fill:#df3639;}.cls-81{fill:#e03739;}.cls-82{fill:#e03839;}.cls-83{fill:#e03938;}.cls-84{fill:#e13a38;}.cls-85{fill:#e13b38;}.cls-86{fill:#e23c37;}.cls-87{fill:#e23d37;}.cls-88{fill:#e23e37;}.cls-89{fill:#e33f36;}.cls-90{fill:#e44036;}.cls-91{fill:#e44135;}.cls-92{fill:#e44235;}.cls-93{fill:#e54335;}.cls-94{fill:#e54434;}.cls-95{fill:#e64534;}.cls-96{fill:#e64634;}.cls-97{fill:#e74733;}.cls-98{fill:#e74833;}.cls-99{fill:#e74933;}.cls-100{fill:#e84a32;}.cls-101{fill:#e84b32;}.cls-102{fill:#e94c32;}.cls-103{fill:#e94d31;}.cls-104{fill:#ea4e31;}.cls-105{fill:#ea4f30;}.cls-106{fill:#ea5130;}.cls-107{fill:#eb5230;}.cls-108{fill:#eb532f;}.cls-109{fill:#ec542f;}.cls-110{fill:#ec552f;}.cls-111{fill:#ed562e;}.cls-112{fill:#ed572e;}.cls-113{fill:#ee582d;}.cls-114{fill:#ee592d;}.cls-115{fill:#ef5a2d;}.cls-116{fill:#ef5b2c;}.cls-117{fill:#ef5c2c;}.cls-118{fill:#f05d2c;}.cls-119{fill:#f05f2b;}.cls-120{fill:#f1602b;}.cls-121{fill:#f1612a;}.cls-122{fill:#f2622a;}.cls-123{fill:#f2632a;}.cls-124{fill:#f36429;}.cls-125{fill:#f36529;}.cls-126{fill:#f46628;}.cls-127{fill:#f46728;}.cls-128{fill:#f56928;}.cls-129{fill:#f56a27;}.cls-130{fill:#f66b27;}.cls-131{fill:#f66c26;}.cls-132{fill:#f76d26;}.cls-133{fill:#f76e26;}.cls-134{fill:#f86f25;}.cls-135{fill:#f87125;}.cls-136{fill:#f97224;}.cls-137{fill:#f97324;}.cls-138{fill:#fa7424;}.cls-139{fill:#fa7523;}.cls-140{fill:#fb7623;}.cls-141{fill:#fb7822;}.cls-142{fill:#fb7922;}.cls-143{fill:#fc7a22;}.cls-144{fill:#fc7b21;}.cls-145{fill:#fd7c21;}.cls-146{fill:#fd7d20;}.cls-147{fill:#fe7f20;}.cls-148{fill:#fe801f;}.cls-149{fill:#ff811f;}.cls-150{clip-path:url(#clip-path-3);}.cls-151{fill:#005117;}.cls-152{fill:#005118;}.cls-153{fill:#005119;}.cls-154{fill:#005219;}.cls-155{fill:#00521a;}.cls-156{fill:#00521b;}.cls-157{fill:#00521c;}.cls-158{fill:#00531d;}.cls-159{fill:#00531e;}.cls-160{fill:#00531f;}.cls-161{fill:#005320;}.cls-162{fill:#005421;}.cls-163{fill:#005422;}.cls-164{fill:#005423;}.cls-165{fill:#005424;}.cls-166{fill:#005525;}.cls-167{fill:#005526;}.cls-168{fill:#005527;}.cls-169{fill:#005528;}.cls-170{fill:#005628;}.cls-171{fill:#005629;}.cls-172{fill:#00562a;}.cls-173{fill:#00562b;}.cls-174{fill:#00572c;}.cls-175{fill:#00572d;}.cls-176{fill:#00572e;}.cls-177{fill:#00572f;}.cls-178{fill:#005830;}.cls-179{fill:#005831;}.cls-180{fill:#005832;}.cls-181{fill:#005833;}.cls-182{fill:#005934;}.cls-183{fill:#005935;}.cls-184{fill:#005936;}.cls-185{fill:#005937;}.cls-186{fill:#005a38;}.cls-187{fill:#005a39;}.cls-188{fill:#005a3a;}.cls-189{fill:#005a3b;}.cls-190{fill:#005b3c;}.cls-191{fill:#005b3d;}.cls-192{fill:#005b3e;}.cls-193{fill:#005c3f;}.cls-194{fill:#005c40;}.cls-195{fill:#005c41;}.cls-196{fill:#005d42;}.cls-197{fill:#005d43;}.cls-198{fill:#005d44;}.cls-199{fill:#005d45;}.cls-200{fill:#005e46;}.cls-201{fill:#005e47;}.cls-202{fill:#005e48;}.cls-203{fill:#005e49;}.cls-204{fill:#005f4a;}.cls-205{fill:#005f4b;}.cls-206{fill:#005f4c;}.cls-207{fill:#005f4d;}.cls-208{fill:#00604e;}.cls-209{fill:#00604f;}.cls-210{fill:#006050;}.cls-211{fill:#006151;}.cls-212{fill:#006152;}.cls-213{fill:#006153;}.cls-214{fill:#006154;}.cls-215{fill:#006255;}.cls-216{fill:#006256;}.cls-217{fill:#006257;}.cls-218{fill:#006258;}.cls-219{fill:#006359;}.cls-220{fill:#00635a;}.cls-221{fill:#00635b;}.cls-222{fill:#00645c;}.cls-223{fill:#00645e;}.cls-224{fill:#00645f;}.cls-225{fill:#006460;}.cls-226{fill:#006561;}.cls-227{fill:#006562;}.cls-228{fill:#006563;}.cls-229{fill:#006564;}.cls-230{fill:#006665;}.cls-231{fill:#066;}.cls-232{fill:#006667;}.cls-233{fill:#006668;}.cls-234{fill:#006769;}.cls-235{fill:#00676a;}.cls-236{fill:#00676b;}.cls-237{fill:#00686c;}.cls-238{fill:#00686d;}.cls-239{fill:#00686e;}.cls-240{fill:#00686f;}.cls-241{fill:#006970;}.cls-242{fill:#006971;}.cls-243{fill:#006972;}.cls-244{fill:#006a73;}.cls-245{fill:#006a74;}.cls-246{fill:#006a75;}.cls-247{fill:#006a76;}.cls-248{fill:#006b77;}.cls-249{fill:#006b78;}.cls-250{fill:#006b79;}.cls-251{fill:#006b7a;}.cls-252{fill:#006c7b;}.cls-253{fill:#006c7c;}.cls-254{fill:#006c7d;}.cls-255{fill:#006d7e;}.cls-256{fill:#006d7f;}.cls-257{fill:#006d81;}.cls-258{fill:#006d82;}.cls-259{fill:#006e83;}.cls-260{fill:#006e84;}.cls-261{fill:#006e85;}.cls-262{fill:#006e86;}.cls-263{fill:#006f87;}.cls-264{fill:#006f88;}.cls-265{fill:#006f89;}.cls-266{fill:#00708a;}.cls-267{fill:#00708b;}.cls-268{fill:#00708c;}.cls-269{fill:#00708d;}.cls-270{fill:#00718e;}.cls-271{fill:#00718f;}.cls-272{fill:#007190;}.cls-273{fill:#007291;}.cls-274{fill:#007292;}.cls-275{fill:#007293;}.cls-276{fill:#007294;}.cls-277{fill:#007395;}.cls-278{fill:#007397;}.cls-279{fill:#007398;}.cls-280{fill:#007499;}.cls-281{fill:#00749a;}.cls-282{fill:#00749b;}.cls-283{fill:#00749c;}.cls-284{fill:#00759d;}.cls-285{fill:#00759e;}.cls-286{fill:#00759f;}.cls-287{fill:#0075a0;}.cls-288{fill:#0076a1;}.cls-289{fill:#0076a2;}.cls-290{fill:#0076a3;}.cls-291{fill:#0077a4;}.cls-292{fill:#0077a5;}.cls-293{fill:#0077a6;}.cls-294{fill:#0077a7;}.cls-295{fill:#0078a9;}.cls-296{fill:#0078aa;}.cls-297{fill:#0078ab;}.cls-298{fill:#0079ac;}.cls-299{fill:#0079ad;}.cls-300{fill:#0079ae;}.cls-301{fill:#0079af;}.cls-302{fill:#007ab0;}.cls-303{fill:#007ab1;}.cls-304{fill:#007ab2;}.cls-305{fill:#007bb3;}.cls-306{fill:#007bb4;}.cls-307{fill:#007bb5;}.cls-308{fill:#007bb6;}.cls-309{fill:#007cb7;}.cls-310{fill:#007cb9;}.cls-311{fill:#007cba;}.cls-312{fill:#007dbb;}.cls-313{fill:#007dbc;}.cls-314{fill:#007dbd;}.cls-315{fill:#007dbe;}.cls-316{fill:#007ebf;}.cls-317{fill:#007ec0;}.cls-318{clip-path:url(#clip-path-4);}.cls-319{fill:#00c28d;}.cls-320{fill:#00c18e;}.cls-321{fill:#00c08e;}.cls-322{fill:#00c08f;}.cls-323{fill:#00bf90;}.cls-324{fill:#00be90;}.cls-325{fill:#00bd91;}.cls-326{fill:#00bc92;}.cls-327{fill:#00bb92;}.cls-328{fill:#00ba93;}.cls-329{fill:#00b994;}.cls-330{fill:#00b894;}.cls-331{fill:#00b795;}.cls-332{fill:#00b696;}.cls-333{fill:#00b597;}.cls-334{fill:#00b497;}.cls-335{fill:#00b398;}.cls-336{fill:#00b299;}.cls-337{fill:#00b19a;}.cls-338{fill:#00b09a;}.cls-339{fill:#00af9b;}.cls-340{fill:#00ae9c;}.cls-341{fill:#00ad9d;}.cls-342{fill:#00ac9d;}.cls-343{fill:#00ab9e;}.cls-344{fill:#00aa9f;}.cls-345{fill:#00a9a0;}.cls-346{fill:#00a8a0;}.cls-347{fill:#00a7a1;}.cls-348{fill:#00a6a2;}.cls-349{fill:#00a5a3;}.cls-350{fill:#00a4a3;}.cls-351{fill:#00a3a4;}.cls-352{fill:#00a2a5;}.cls-353{fill:#00a1a6;}.cls-354{fill:#00a0a7;}.cls-355{fill:#009fa7;}.cls-356{fill:#009ea8;}.cls-357{fill:#009da9;}.cls-358{fill:#009caa;}.cls-359{fill:#009baa;}.cls-360{fill:#009aab;}.cls-361{fill:#0099ac;}.cls-362{fill:#0098ad;}.cls-363{fill:#0097ae;}.cls-364{fill:#0096ae;}.cls-365{fill:#0094af;}.cls-366{fill:#0093b0;}.cls-367{fill:#0092b1;}.cls-368{fill:#0091b2;}.cls-369{fill:#0090b2;}.cls-370{fill:#008fb3;}.cls-371{fill:#008eb4;}.cls-372{fill:#008db5;}.cls-373{fill:#008cb6;}.cls-374{fill:#008bb6;}.cls-375{fill:#008ab7;}.cls-376{fill:#0089b8;}.cls-377{fill:#0088b9;}.cls-378{fill:#0087ba;}.cls-379{fill:#0086ba;}.cls-380{fill:#0084bb;}.cls-381{fill:#0083bc;}.cls-382{fill:#0082bd;}.cls-383{fill:#0081be;}.cls-384{fill:#0080be;}.cls-385{fill:#007fbf;}.cls-386{opacity:0.86;}.cls-387{clip-path:url(#clip-path-5);}.cls-388{fill:#03c190;}.cls-389{fill:#04c191;}.cls-390{fill:#05c192;}.cls-391{fill:#06c192;}.cls-392{fill:#07c193;}.cls-393{fill:#08c194;}.cls-394{fill:#09c095;}.cls-395{fill:#0ac096;}.cls-396{fill:#0bc097;}.cls-397{fill:#0bc098;}.cls-398{fill:#0cc098;}.cls-399{fill:#0dbf99;}.cls-400{fill:#0ebf9a;}.cls-401{fill:#0fbf9b;}.cls-402{fill:#10bf9c;}.cls-403{fill:#11bf9d;}.cls-404{fill:#12bf9e;}.cls-405{fill:#13be9f;}.cls-406{fill:#14bea0;}.cls-407{fill:#15bea0;}.cls-408{fill:#16bea1;}.cls-409{fill:#17bea2;}.cls-410{fill:#18bda3;}.cls-411{fill:#19bda4;}.cls-412{fill:#1abda5;}.cls-413{fill:#1bbda6;}.cls-414{fill:#1cbda7;}.cls-415{fill:#1dbca8;}.cls-416{fill:#1ebca9;}.cls-417{fill:#1fbcaa;}.cls-418{fill:#20bcaa;}.cls-419{fill:#21bcab;}.cls-420{fill:#22bbac;}.cls-421{fill:#23bbad;}.cls-422{fill:#24bbae;}.cls-423{fill:#25bbaf;}.cls-424{fill:#26bbb0;}.cls-425{fill:#27bbb1;}.cls-426{fill:#28bab2;}.cls-427{fill:#29bab3;}.cls-428{fill:#2abab4;}.cls-429{fill:#2bbab5;}.cls-430{fill:#2cbab6;}.cls-431{fill:#2db9b7;}.cls-432{fill:#2eb9b8;}.cls-433{fill:#2fb9b8;}.cls-434{fill:#30b9b9;}.cls-435{fill:#31b9ba;}.cls-436{fill:#32b8bb;}.cls-437{fill:#33b8bc;}.cls-438{fill:#34b8bd;}.cls-439{fill:#35b8be;}.cls-440{fill:#36b8bf;}.cls-441{fill:#37b7c0;}.cls-442{fill:#38b7c1;}.cls-443{fill:#39b7c2;}.cls-444{fill:#3ab7c3;}.cls-445{fill:#3bb7c4;}.cls-446{fill:#3db6c5;}.cls-447{fill:#3eb6c6;}.cls-448{fill:#3fb6c7;}.cls-449{fill:#40b6c8;}.cls-450{fill:#41b6c9;}.cls-451{fill:#42b5ca;}.cls-452{fill:#43b5cb;}.cls-453{fill:#44b5cc;}.cls-454{fill:#45b5cd;}.cls-455{fill:#46b5ce;}.cls-456{fill:#47b4cf;}.cls-457{fill:#48b4d0;}.cls-458{fill:#49b4d0;}.cls-459{fill:#4ab4d1;}.cls-460{fill:#4bb4d2;}.cls-461{fill:#4cb3d3;}.cls-462{fill:#4db3d4;}.cls-463{fill:#4eb3d5;}.cls-464{fill:#4fb3d6;}.cls-465{fill:#50b3d7;}.cls-466{fill:#52b2d8;}.cls-467{fill:#53b2d9;}.cls-468{fill:#54b2da;}.cls-469{fill:#55b2db;}.cls-470{fill:#56b1dc;}.cls-471{fill:#57b1dd;}.cls-472{fill:#58b1de;}.cls-473{fill:#59b1df;}.cls-474{fill:#5ab1e0;}.cls-475{fill:#5bb0e1;}.cls-476{fill:#5cb0e2;}.cls-477{fill:#5db0e3;}.cls-478{fill:#5eb0e4;}.cls-479{fill:#5fb0e5;}.cls-480{fill:#60afe6;}.cls-481{fill:#62afe7;}.cls-482{fill:#63afe8;}.cls-483{fill:#64afe9;}.cls-484{fill:#65afea;}.cls-485{fill:#66aeeb;}.cls-486{fill:#67aeec;}.cls-487{fill:#68aeed;}.cls-488{clip-path:url(#clip-path-6);}.cls-489{fill:#ff6f1f;}.cls-490{fill:#ff701f;}.cls-491{fill:#ff711f;}.cls-492{fill:#ff721f;}.cls-493{fill:#ff731f;}.cls-494{fill:#ff741f;}.cls-495{fill:#ff751f;}.cls-496{fill:#ff761f;}.cls-497{fill:#ff771f;}.cls-498{fill:#ff781f;}.cls-499{fill:#ff791f;}.cls-500{fill:#ff7a1f;}.cls-501{fill:#ff7b1f;}.cls-502{fill:#ff7c1f;}.cls-503{fill:#ff7d1f;}.cls-504{fill:#ff7e1f;}.cls-505{fill:#ff7f1f;}.cls-506{fill:#ff801f;}.cls-507{fill:#ff821f;}.cls-508{fill:#ff831f;}.cls-509{fill:#ff841f;}.cls-510{fill:#ff851f;}.cls-511{fill:#ff861f;}.cls-512{fill:#ff871f;}.cls-513{fill:#ff881f;}.cls-514{fill:#ff891f;}.cls-515{fill:#ff8a1f;}.cls-516{fill:#ff8b1f;}.cls-517{fill:#ff8c1f;}.cls-518{fill:#ff8d1f;}.cls-519{fill:#ff8e1f;}.cls-520{fill:#ff8f1f;}.cls-521{fill:#ff901f;}.cls-522{fill:#ff911f;}.cls-523{fill:#ff921f;}.cls-524{fill:#ff931f;}.cls-525{fill:#ff941f;}.cls-526{fill:#ff951f;}.cls-527{fill:#ff961f;}.cls-528{fill:#ff971f;}.cls-529{fill:#ff991f;}.cls-530{fill:#ff9a1f;}.cls-531{fill:#ff9b1f;}.cls-532{fill:#ff9c1f;}.cls-533{fill:#ff9d1f;}.cls-534{fill:#ff9e1f;}.cls-535{fill:#ff9f1f;}.cls-536{fill:#ffa01f;}.cls-537{fill:#ffa11f;}.cls-538{fill:#ffa21f;}.cls-539{fill:#ffa31f;}.cls-540{fill:#ffa41f;}.cls-541{fill:#ffa51f;}.cls-542{fill:#ffa61f;}.cls-543{fill:#ffa71f;}.cls-544{fill:#ffa91f;}.cls-545{fill:#ffaa1f;}.cls-546{fill:#ffab1f;}.cls-547{fill:#ffac1f;}.cls-548{fill:#ffad1f;}.cls-549{fill:#ffae1f;}.cls-550{fill:#ffaf1f;}.cls-551{fill:#ffb01f;}.cls-552{fill:#ffb11f;}.cls-553{fill:#ffb21f;}.cls-554{fill:#ffb41f;}.cls-555{fill:#ffb51f;}.cls-556{fill:#ffb61f;}.cls-557{fill:#ffb71f;}.cls-558{fill:#ffb81f;}.cls-559{fill:#ffb91f;}.cls-560{fill:#ffba1f;}.cls-561{fill:#ffbc1f;}.cls-562{fill:#ffbd1f;}.cls-563{fill:#ffbe1f;}.cls-564{fill:#ffbf1f;}.cls-565{fill:#ffc01f;}.cls-566{fill:#ffc11f;}.cls-567{fill:#ffc21f;}.cls-568{fill:#ffc41f;}.cls-569{fill:#ffc51f;}.cls-570{fill:#ffc61f;}.cls-571{fill:#ffc71f;}.cls-572{fill:#ffc81f;}.cls-573{fill:#ffc91f;}.cls-574{fill:#ffcb1f;}.cls-575{fill:#ffcc1f;}.cls-576{fill:#ffcd1f;}.cls-577{fill:#ffce1f;}.cls-578{fill:#ffcf1f;}.cls-579{fill:#ffd01f;}.cls-580{fill:#ffd21f;}.cls-581{fill:#ffd31f;}.cls-582{fill:#ffd41f;}</style><clipPath id="clip-path"><path class="cls-1" d="M61.77,147.44c-3.48,14.41-18.28,24.93-20,26.08,1.95-3.09,2.15-5,1.81-9.85-.44-6.27-.28-13.5,7.17-20-7.73-1-15.75,4-23.26-1.16a22.62,22.62,0,0,1-3.3-2.8c-3.5-3.69-2.39-9.44-5.9-13.12-2.66-2.8-7.51-.33-9.79-4.06-.15-.24-1.31-2.45,3.26-5.76a27.36,27.36,0,0,1,6.27-3.18c28.29-8.55,48.94,12.13,43.7,33.81Z"/></clipPath><clipPath id="clip-path-2"><path class="cls-1" d="M.18,74.06C.24,78.87.3,83.84,24,80.92c6.2-.76,20.73-2.55,31.39-13.65.62-.64,1.39-1.57,2-2.24C51.53,87.31,29.8,98.6,17.33,98.6a47.65,47.65,0,0,0,8.79,0l1.71-.19a50.84,50.84,0,0,0,7.72-1.59,52,52,0,0,0,7.37-2.74c18-9.18,28.22-23.57,29.65-43.94a47.63,47.63,0,0,0-.23-8,49.05,49.05,0,0,0-1.45-7.76C70.38,32.8,69.7,30.61,69.1,29c2.3,7.13.19,13.25-5.74,25.16C72.15,21.67,40.44.25,40.11.06a6.27,6.27,0,0,0-.5.54C38,3,40.48,6,38.35,8.24c-3.13,3.31-7.67,5.12-10,9.3-.91,1.64-1.16,2.08-1.3,6.05-.37,10.7,7.57,17.9,11.28,26.89C15.28,38.11.06,63,.18,74.06Z"/></clipPath><clipPath id="clip-path-3"><path class="cls-1" d="M75.14,128.63c2.43,11.83,6.75,17,11,21.32-1.45-1.47-3.34-3.49-4.69-5.06a50.43,50.43,0,0,1-4.56-6.66,51,51,0,0,1-6.78-22.94,47.76,47.76,0,0,1,.25-8.21c.37-2.39,1-5.56,1.52-7.92,1.7-5.34,1.7-5.34,2.88-7.92a48.28,48.28,0,0,1,4-7.15,47.16,47.16,0,0,1,5-6.32l2.08-2.11c-11.27,11-14.31,35.54-10.74,53Z"/></clipPath><clipPath id="clip-path-4"><path class="cls-1" d="M111.4,148.56C105.51,155,74.65,134,74.11,108c-.56-26.84,25.48-46.2,59.28-44.06-13,4.41-13,7.46-13.1,9.7-.29,13.21-.37,16.76-19.42,26.56-5.78,3-6.91,3.83-9.64,5.91,24.9,3.16,25.51,36.55,20.17,42.46Z"/></clipPath><clipPath id="clip-path-5"><path class="cls-1" d="M88.05,151.66a38.43,38.43,0,0,0,7.68,5c-9.32-7.81-16.68-14-25-39.65-1.69-5.24,7.21-2.94,10.6-4.88a17.47,17.47,0,0,0,3.27-2.6C91,103.17,90.19,93,96.88,86.91,102.1,82.13,111,85,115.2,78.09c.72-1.18.08-5.21-8.38-7.67-10.61-2-16.34,1.35-20.94,5.24L83.8,77.77a50.63,50.63,0,0,0-9.06,13.47,49.36,49.36,0,0,0-2.88,7.92c-.54,2.36-1.16,5.53-1.52,7.92a47.24,47.24,0,0,0-.25,8.21,49.33,49.33,0,0,0,1,8A50.25,50.25,0,0,0,73.42,131a49.38,49.38,0,0,0,3.45,7.23,50.53,50.53,0,0,0,4.56,6.66c1.36,1.56,3.23,3.59,4.69,5.06.58.51,1.33,1.22,1.93,1.71Z"/></clipPath><clipPath id="clip-path-6"><path class="cls-1" d="M99,51.51c8.77,2.72,19.07-1.81,20.21-2.34-2.26.06-3.33-.43-5.81-2.17-3.2-2.22-7.09-4.43-12.9-2.52,1.92-4.43,7.14-7.1,6.77-12.74a15,15,0,0,0-.44-2.65c-.85-3-4.27-4.26-5.11-7.3-.64-2.3,2.21-4.1,1-6.49-.08-.16-.89-1.48-4.1-.1a17.33,17.33,0,0,0-3.68,2.32c-13.53,12.34-9.09,29.9,4.11,34Z"/></clipPath></defs><title>logoAsset 1</title><g class="cls-2"><g id="Layer_2" data-name="Layer 2"><g id="Capa_1" data-name="Capa 1"><path class="cls-3" d="M53.75,167c-.36.59-.83,1.39-1.17,2a15.48,15.48,0,0,0,2.89-2.65,34.91,34.91,0,0,0,3.17-4.11,36.93,36.93,0,0,0,4.91-10.91,34.37,34.37,0,0,0,1-5.85,34.73,34.73,0,0,0,.07-6,39.89,39.89,0,0,0-1.51-8.07,36.12,36.12,0,0,0-2.29-5.73,35.21,35.21,0,0,0-3.15-5.15A33.79,33.79,0,0,0,53.8,116a36,36,0,0,0-4.57-3.8,36.72,36.72,0,0,0-5.2-3l-1.34-.61A30.28,30.28,0,0,0,24.93,108c5.38,2.45,11.83,1,16.9,4.61,4.41,3.14,6.14,8.39,9.64,12.23,2.39,2.62,6.43,4,8.29,7C65.63,141.25,58.86,158.46,53.75,167Z"/><g class="cls-4"><g class="cls-5"><polygon class="cls-6" points="56.24 173.49 67.09 167.59 67.11 173.47 56.24 173.49"/><polygon class="cls-6" points="53.92 173.5 67.09 166.33 67.09 167.59 56.24 173.49 53.92 173.5"/><polygon class="cls-6" points="51.59 173.5 67.09 165.07 67.09 166.33 53.92 173.5 51.59 173.5"/><polygon class="cls-7" points="49.27 173.51 67.09 163.82 67.09 165.07 51.59 173.5 49.27 173.51"/><polygon class="cls-8" points="46.94 173.51 67.08 162.56 67.09 163.82 49.27 173.51 46.94 173.51"/><polygon class="cls-9" points="44.62 173.52 67.08 161.3 67.08 162.56 46.94 173.51 44.62 173.52"/><polygon class="cls-10" points="42.29 173.52 67.08 160.04 67.08 161.3 44.62 173.52 42.29 173.52"/><polygon class="cls-11" points="39.97 173.53 67.08 158.78 67.08 160.04 42.29 173.52 39.97 173.53"/><polygon class="cls-12" points="37.64 173.53 67.07 157.52 67.08 158.78 39.97 173.53 37.64 173.53"/><polygon class="cls-13" points="35.31 173.53 67.07 156.26 67.07 157.52 37.64 173.53 35.31 173.53"/><polygon class="cls-13" points="33.97 173.54 33.74 173.13 67.07 155 67.07 156.26 35.31 173.53 33.97 173.54"/><polygon class="cls-14" points="33.74 173.13 33.22 172.16 67.07 153.75 67.07 155 33.74 173.13"/><polygon class="cls-15" points="33.22 172.16 32.69 171.18 67.06 152.49 67.07 153.75 33.22 172.16"/><polygon class="cls-16" points="32.69 171.18 32.16 170.21 67.06 151.23 67.06 152.49 32.69 171.18"/><polygon class="cls-17" points="32.16 170.21 31.63 169.24 67.06 149.97 67.06 151.23 32.16 170.21"/><polygon class="cls-18" points="31.63 169.24 31.1 168.26 67.06 148.71 67.06 149.97 31.63 169.24"/><polygon class="cls-19" points="31.1 168.26 30.57 167.29 67.06 147.45 67.06 148.71 31.1 168.26"/><polygon class="cls-20" points="30.57 167.29 30.04 166.32 67.05 146.19 67.06 147.45 30.57 167.29"/><polygon class="cls-21" points="30.04 166.32 29.51 165.35 67.05 144.93 67.05 146.19 30.04 166.32"/><polygon class="cls-22" points="29.51 165.35 28.98 164.38 67.05 143.67 67.05 144.93 29.51 165.35"/><polygon class="cls-23" points="28.98 164.38 28.45 163.4 67.05 142.41 67.05 143.67 28.98 164.38"/><polygon class="cls-24" points="28.45 163.4 27.93 162.43 67.04 141.16 67.05 142.41 28.45 163.4"/><polygon class="cls-25" points="27.93 162.43 27.4 161.46 67.04 139.9 67.04 141.16 27.93 162.43"/><polygon class="cls-26" points="27.4 161.46 26.87 160.49 67.04 138.64 67.04 139.9 27.4 161.46"/><polygon class="cls-27" points="26.87 160.49 26.34 159.51 67.03 137.38 67.04 138.64 26.87 160.49"/><polygon class="cls-28" points="26.34 159.51 25.81 158.54 67.03 136.12 67.03 137.38 26.34 159.51"/><polygon class="cls-29" points="25.81 158.54 25.28 157.57 67.03 134.86 67.03 136.12 25.81 158.54"/><polygon class="cls-30" points="25.28 157.57 24.75 156.59 67.03 133.6 67.03 134.86 25.28 157.57"/><polygon class="cls-31" points="24.75 156.59 24.22 155.62 67.03 132.34 67.03 133.6 24.75 156.59"/><polygon class="cls-32" points="24.22 155.62 23.69 154.65 67.02 131.09 67.03 132.34 24.22 155.62"/><polygon class="cls-33" points="23.69 154.65 23.16 153.68 67.02 129.83 67.02 131.09 23.69 154.65"/><polygon class="cls-34" points="23.16 153.68 22.64 152.7 67.02 128.57 67.02 129.83 23.16 153.68"/><polygon class="cls-35" points="22.64 152.7 22.11 151.73 67.02 127.31 67.02 128.57 22.64 152.7"/><polygon class="cls-36" points="22.11 151.73 21.58 150.76 67.01 126.05 67.02 127.31 22.11 151.73"/><polygon class="cls-37" points="21.58 150.76 21.05 149.79 67.01 124.79 67.01 126.05 21.58 150.76"/><polygon class="cls-38" points="21.05 149.79 20.52 148.81 67.01 123.53 67.01 124.79 21.05 149.79"/><polygon class="cls-39" points="20.52 148.81 19.99 147.84 67 122.27 67.01 123.53 20.52 148.81"/><polygon class="cls-40" points="19.99 147.84 19.46 146.87 66.78 121.14 67 121.56 67 122.27 19.99 147.84"/><rect class="cls-41" x="15.93" y="132.96" width="53.86" height="1.11" transform="translate(-58.58 36.7) rotate(-28.54)"/><rect class="cls-42" x="15.4" y="131.99" width="53.86" height="1.11" transform="translate(-58.18 36.33) rotate(-28.54)"/><rect class="cls-43" x="14.87" y="131.02" width="53.86" height="1.11" transform="translate(-57.78 35.96) rotate(-28.54)"/><rect class="cls-44" x="14.34" y="130.05" width="53.86" height="1.11" transform="translate(-57.38 35.59) rotate(-28.54)"/><rect class="cls-45" x="13.81" y="129.07" width="53.86" height="1.11" transform="translate(-56.98 35.21) rotate(-28.54)"/><rect class="cls-46" x="13.28" y="128.1" width="53.86" height="1.11" transform="translate(-56.58 34.84) rotate(-28.54)"/><rect class="cls-47" x="12.75" y="127.13" width="53.86" height="1.11" transform="translate(-56.18 34.47) rotate(-28.54)"/><rect class="cls-48" x="12.22" y="126.16" width="53.86" height="1.11" transform="translate(-55.78 34.1) rotate(-28.54)"/><rect class="cls-49" x="11.69" y="125.18" width="53.86" height="1.11" transform="translate(-55.38 33.73) rotate(-28.54)"/><rect class="cls-50" x="11.17" y="124.21" width="53.86" height="1.11" transform="translate(-54.98 33.36) rotate(-28.54)"/><rect class="cls-51" x="10.64" y="123.24" width="53.86" height="1.11" transform="translate(-54.58 32.99) rotate(-28.54)"/><rect class="cls-52" x="10.11" y="122.27" width="53.86" height="1.11" transform="translate(-54.18 32.62) rotate(-28.54)"/><rect class="cls-53" x="9.58" y="121.29" width="53.86" height="1.11" transform="translate(-53.78 32.25) rotate(-28.54)"/><rect class="cls-54" x="9.05" y="120.32" width="53.86" height="1.11" transform="translate(-53.38 31.88) rotate(-28.54)"/><rect class="cls-55" x="8.52" y="119.35" width="53.86" height="1.11" transform="translate(-52.98 31.51) rotate(-28.54)"/><rect class="cls-56" x="7.99" y="118.38" width="53.86" height="1.11" transform="translate(-52.58 31.13) rotate(-28.54)"/><polygon class="cls-57" points="11 131.31 10.47 130.34 56.95 105.06 58.03 105.06 58.31 105.58 11 131.31"/><polygon class="cls-58" points="10.47 130.34 9.94 129.36 54.62 105.06 56.95 105.06 10.47 130.34"/><polygon class="cls-59" points="9.94 129.36 9.41 128.39 52.3 105.07 54.62 105.06 9.94 129.36"/><polygon class="cls-60" points="9.41 128.39 8.88 127.42 49.97 105.07 52.3 105.07 9.41 128.39"/><polygon class="cls-61" points="8.88 127.42 8.36 126.44 47.65 105.08 49.97 105.07 8.88 127.42"/><polygon class="cls-62" points="8.36 126.44 7.83 125.47 45.32 105.08 47.65 105.08 8.36 126.44"/><polygon class="cls-63" points="7.83 125.47 7.3 124.5 42.99 105.09 45.32 105.08 7.83 125.47"/><polygon class="cls-64" points="7.3 124.5 7.24 124.4 7.24 123.27 40.67 105.09 42.99 105.09 7.3 124.5"/><polygon class="cls-65" points="7.24 122.01 38.34 105.1 40.67 105.09 7.24 123.27 7.24 122.01"/><polygon class="cls-66" points="7.24 120.75 36.02 105.1 38.34 105.1 7.24 122.01 7.24 120.75"/><polygon class="cls-67" points="7.23 119.5 33.69 105.11 36.02 105.1 7.24 120.75 7.23 119.5"/><polygon class="cls-3" points="7.23 118.24 31.37 105.11 33.69 105.11 7.23 119.5 7.23 118.24"/><polygon class="cls-3" points="31.37 105.11 7.23 118.24 7.2 105.16 31.37 105.11"/></g></g><path class="cls-68" d="M63.21,76.63a7.61,7.61,0,0,0-.69-1.88c-2.31-4.15-1.19-10.09.68-19.94,2.09-11,2.59-13.58-3.61-21.6-2.1-2.73-4.73-6.12-4.54-9.24.26-4.56,7.37-3.68,11.19.37A14.11,14.11,0,0,1,69,28.69c.57,1.63,1.32,3.79,1.79,5.45a48.3,48.3,0,0,1,1.45,7.76,51.83,51.83,0,0,1,.23,8,48.48,48.48,0,0,1-1,8,63.5,63.5,0,0,1-2.39,8c-.88,2-2.11,4.69-3.14,6.64C65.09,73.87,64,75.68,63.1,77l.11-.36Z"/><path class="cls-69" d="M28,98.42C42.82,96.33,53.28,88,58.2,83.27L56,85.41a54.59,54.59,0,0,1-6.22,4.86,50.45,50.45,0,0,1-6.86,3.84,51,51,0,0,1-7.37,2.74,48.55,48.55,0,0,1-7.72,1.59l-1.71.19c.56-.07,1.3-.13,1.86-.21Z"/><g class="cls-4"><g class="cls-70"><polygon class="cls-69" points="0.1 88.21 10.18 99 0.13 99.02 0.1 88.21"/><polygon class="cls-69" points="0.1 86.72 11.56 99 10.18 99 0.1 88.21 0.1 86.72"/><polygon class="cls-69" points="0.1 85.23 12.95 99 11.56 99 0.1 86.72 0.1 85.23"/><polygon class="cls-71" points="0.1 83.74 14.34 99 12.95 99 0.1 85.23 0.1 83.74"/><polygon class="cls-72" points="0.09 82.25 15.73 98.99 14.34 99 0.1 83.74 0.09 82.25"/><polygon class="cls-72" points="0.09 80.75 17.11 98.99 15.73 98.99 0.09 82.25 0.09 80.75"/><polygon class="cls-73" points="0.09 79.26 18.5 98.99 17.11 98.99 0.09 80.75 0.09 79.26"/><polygon class="cls-74" points="0.09 77.77 19.89 98.99 18.5 98.99 0.09 79.26 0.09 77.77"/><polygon class="cls-75" points="0.08 76.28 21.28 98.98 19.89 98.99 0.09 77.77 0.08 76.28"/><polygon class="cls-75" points="0.08 74.78 22.66 98.98 21.28 98.98 0.08 76.28 0.08 74.78"/><polygon class="cls-76" points="0.08 73.29 24.05 98.98 22.66 98.98 0.08 74.78 0.08 73.29"/><polygon class="cls-77" points="0.07 71.8 25.44 98.97 24.05 98.98 0.08 73.29 0.07 71.8"/><polygon class="cls-78" points="0.07 70.31 26.83 98.97 25.44 98.97 0.07 71.8 0.07 70.31"/><polygon class="cls-79" points="0.07 68.81 28.21 98.97 26.83 98.97 0.07 70.31 0.07 68.81"/><polygon class="cls-79" points="0.06 67.32 29.6 98.97 28.21 98.97 0.07 68.81 0.06 67.32"/><polygon class="cls-80" points="0.06 65.83 30.99 98.96 29.6 98.97 0.06 67.32 0.06 65.83"/><polygon class="cls-81" points="0.06 64.34 32.38 98.96 30.99 98.96 0.06 65.83 0.06 64.34"/><polygon class="cls-82" points="0.06 62.85 33.76 98.96 32.38 98.96 0.06 64.34 0.06 62.85"/><polygon class="cls-83" points="0.05 61.35 35.15 98.96 33.76 98.96 0.06 62.85 0.05 61.35"/><polygon class="cls-84" points="0.05 59.86 36.54 98.95 35.15 98.96 0.05 61.35 0.05 59.86"/><polygon class="cls-85" points="0.05 58.37 37.92 98.95 36.54 98.95 0.05 59.86 0.05 58.37"/><polygon class="cls-86" points="0.04 56.88 39.31 98.95 37.92 98.95 0.05 58.37 0.04 56.88"/><polygon class="cls-87" points="0.04 55.38 40.7 98.94 39.31 98.95 0.04 56.88 0.04 55.38"/><polygon class="cls-88" points="0.04 53.89 42.09 98.94 40.7 98.94 0.04 55.38 0.04 53.89"/><polygon class="cls-89" points="0.04 52.4 43.48 98.94 42.09 98.94 0.04 53.89 0.04 52.4"/><polygon class="cls-89" points="0.03 50.91 44.86 98.94 43.48 98.94 0.04 52.4 0.03 50.91"/><polygon class="cls-90" points="0.03 49.42 46.25 98.93 44.86 98.94 0.03 50.91 0.03 49.42"/><polygon class="cls-91" points="0.03 47.92 47.64 98.93 46.25 98.93 0.03 49.42 0.03 47.92"/><polygon class="cls-92" points="0.02 46.43 48.95 98.85 48.86 98.93 47.64 98.93 0.03 47.92 0.02 46.43"/><polygon class="cls-93" points="0.02 44.94 49.69 98.15 48.95 98.85 0.02 46.43 0.02 44.94"/><polygon class="cls-94" points="0.02 43.45 50.43 97.46 49.69 98.15 0.02 44.94 0.02 43.45"/><polygon class="cls-95" points="0.01 41.95 51.18 96.77 50.43 97.46 0.02 43.45 0.01 41.95"/><polygon class="cls-96" points="0.01 40.46 51.92 96.07 51.18 96.77 0.01 41.95 0.01 40.46"/><polygon class="cls-97" points="0.01 38.97 52.66 95.38 51.92 96.07 0.01 40.46 0.01 38.97"/><polygon class="cls-98" points="0.01 37.48 53.41 94.69 52.66 95.38 0.01 38.97 0.01 37.48"/><polygon class="cls-99" points="0 35.99 54.15 93.99 53.41 94.69 0.01 37.48 0 35.99"/><polygon class="cls-100" points="0 34.77 0.14 34.64 54.89 93.3 54.15 93.99 0 35.99 0 34.77"/><rect class="cls-101" x="27.38" y="23.5" width="1.02" height="80.24" transform="translate(-35.91 36.14) rotate(-43.03)"/><rect class="cls-102" x="28.12" y="22.81" width="1.02" height="80.24" transform="translate(-35.24 36.46) rotate(-43.03)"/><rect class="cls-103" x="28.86" y="22.12" width="1.02" height="80.24" transform="translate(-34.57 36.78) rotate(-43.03)"/><rect class="cls-104" x="29.61" y="21.42" width="1.02" height="80.24" transform="translate(-33.89 37.1) rotate(-43.03)"/><rect class="cls-105" x="30.35" y="20.73" width="1.02" height="80.24" transform="translate(-33.22 37.42) rotate(-43.03)"/><rect class="cls-106" x="31.09" y="20.04" width="1.02" height="80.24" transform="translate(-32.55 37.74) rotate(-43.03)"/><rect class="cls-107" x="31.83" y="19.34" width="1.02" height="80.24" transform="translate(-31.88 38.06) rotate(-43.03)"/><rect class="cls-108" x="32.58" y="18.65" width="1.02" height="80.24" transform="translate(-31.2 38.38) rotate(-43.03)"/><rect class="cls-109" x="33.32" y="17.96" width="1.02" height="80.24" transform="translate(-30.53 38.7) rotate(-43.03)"/><rect class="cls-110" x="34.06" y="17.26" width="1.02" height="80.24" transform="translate(-29.86 39.02) rotate(-43.03)"/><rect class="cls-111" x="34.81" y="16.57" width="1.02" height="80.24" transform="translate(-29.18 39.34) rotate(-43.03)"/><rect class="cls-112" x="35.55" y="15.88" width="1.02" height="80.24" transform="translate(-28.51 39.66) rotate(-43.03)"/><rect class="cls-113" x="36.29" y="15.18" width="1.02" height="80.24" transform="translate(-27.84 39.98) rotate(-43.03)"/><rect class="cls-114" x="37.03" y="14.49" width="1.02" height="80.24" transform="translate(-27.17 40.31) rotate(-43.03)"/><rect class="cls-115" x="37.78" y="13.8" width="1.02" height="80.24" transform="translate(-26.49 40.63) rotate(-43.03)"/><rect class="cls-116" x="38.52" y="13.1" width="1.02" height="80.24" transform="translate(-25.82 40.95) rotate(-43.03)"/><rect class="cls-117" x="39.26" y="12.41" width="1.02" height="80.24" transform="translate(-25.15 41.27) rotate(-43.03)"/><rect class="cls-118" x="40" y="11.72" width="1.02" height="80.24" transform="translate(-24.47 41.59) rotate(-43.03)"/><rect class="cls-119" x="40.75" y="11.02" width="1.02" height="80.24" transform="translate(-23.8 41.91) rotate(-43.03)"/><rect class="cls-120" x="41.49" y="10.33" width="1.02" height="80.24" transform="translate(-23.13 42.23) rotate(-43.03)"/><rect class="cls-121" x="42.23" y="9.64" width="1.02" height="80.24" transform="translate(-22.46 42.55) rotate(-43.03)"/><rect class="cls-122" x="42.98" y="8.94" width="1.02" height="80.24" transform="translate(-21.78 42.87) rotate(-43.03)"/><rect class="cls-123" x="43.72" y="8.25" width="1.02" height="80.24" transform="translate(-21.11 43.19) rotate(-43.03)"/><polygon class="cls-124" points="17.22 18.69 17.96 18 72.69 76.63 72.69 76.69 71.97 77.35 17.22 18.69"/><polygon class="cls-125" points="17.96 18 18.71 17.31 72.69 75.14 72.69 76.63 17.96 18"/><polygon class="cls-126" points="18.71 17.31 19.45 16.61 72.68 73.65 72.69 75.14 18.71 17.31"/><polygon class="cls-127" points="19.45 16.61 20.19 15.92 72.68 72.15 72.68 73.65 19.45 16.61"/><polygon class="cls-128" points="20.19 15.92 20.93 15.23 72.68 70.66 72.68 72.15 20.19 15.92"/><polygon class="cls-129" points="20.93 15.23 21.68 14.53 72.67 69.17 72.68 70.66 20.93 15.23"/><polygon class="cls-130" points="21.68 14.53 22.42 13.84 72.67 67.68 72.67 69.17 21.68 14.53"/><polygon class="cls-131" points="22.42 13.84 23.16 13.15 72.67 66.19 72.67 67.68 22.42 13.84"/><polygon class="cls-132" points="23.16 13.15 23.91 12.45 72.67 64.69 72.67 66.19 23.16 13.15"/><polygon class="cls-133" points="23.91 12.45 24.65 11.76 72.66 63.2 72.67 64.69 23.91 12.45"/><polygon class="cls-134" points="24.65 11.76 25.39 11.07 72.66 61.71 72.66 63.2 24.65 11.76"/><polygon class="cls-135" points="25.39 11.07 26.14 10.37 72.66 60.22 72.66 61.71 25.39 11.07"/><polygon class="cls-136" points="26.14 10.37 26.88 9.68 72.66 58.72 72.66 60.22 26.14 10.37"/><polygon class="cls-137" points="26.88 9.68 27.62 8.99 72.65 57.23 72.66 58.72 26.88 9.68"/><polygon class="cls-138" points="27.62 8.99 28.36 8.29 72.65 55.74 72.65 57.23 27.62 8.99"/><polygon class="cls-139" points="28.36 8.29 29.11 7.6 72.65 54.25 72.65 55.74 28.36 8.29"/><polygon class="cls-140" points="29.11 7.6 29.85 6.91 72.64 52.76 72.65 54.25 29.11 7.6"/><polygon class="cls-141" points="29.85 6.91 30.59 6.21 72.64 51.26 72.64 52.76 29.85 6.91"/><polygon class="cls-142" points="30.59 6.21 31.33 5.52 72.64 49.77 72.64 51.26 30.59 6.21"/><polygon class="cls-143" points="31.33 5.52 32.08 4.83 72.63 48.28 72.64 49.77 31.33 5.52"/><polygon class="cls-144" points="32.08 4.83 32.82 4.13 72.63 46.79 72.63 48.28 32.08 4.83"/><polygon class="cls-145" points="32.82 4.13 33.56 3.44 72.63 45.29 72.63 46.79 32.82 4.13"/><polygon class="cls-146" points="33.56 3.44 34.3 2.75 72.63 43.8 72.63 45.29 33.56 3.44"/><polygon class="cls-147" points="34.3 2.75 35.05 2.05 72.62 42.31 72.63 43.8 34.3 2.75"/><polygon class="cls-148" points="35.05 2.05 35.79 1.36 72.62 40.82 72.62 42.31 35.05 2.05"/><polygon class="cls-149" points="35.79 1.36 36.53 0.67 72.62 39.32 72.62 40.82 35.79 1.36"/><polygon class="cls-149" points="36.53 0.67 37.17 0.07 72.54 0 72.62 39.32 36.53 0.67"/></g></g><g class="cls-150"><path class="cls-151" d="M86,150l.15-.7Z"/><polygon class="cls-152" points="85.83 149.95 86.12 148.54 86.12 149.25 85.97 149.95 85.83 149.95"/><polygon class="cls-153" points="85.68 149.95 86.12 147.84 86.12 148.54 85.83 149.95 85.68 149.95"/><polygon class="cls-154" points="85.53 149.95 86.12 147.13 86.12 147.84 85.68 149.95 85.53 149.95"/><polygon class="cls-155" points="85.39 149.95 86.11 146.43 86.12 147.13 85.53 149.95 85.39 149.95"/><polygon class="cls-156" points="85.24 149.95 86.11 145.72 86.11 146.43 85.39 149.95 85.24 149.95"/><polygon class="cls-157" points="85.1 149.95 86.11 145.02 86.11 145.72 85.24 149.95 85.1 149.95"/><polygon class="cls-158" points="84.95 149.95 86.11 144.31 86.11 145.02 85.1 149.95 84.95 149.95"/><polygon class="cls-159" points="84.8 149.96 86.11 143.61 86.11 144.31 84.95 149.95 84.8 149.96"/><polygon class="cls-159" points="84.66 149.96 86.11 142.91 86.11 143.61 84.8 149.96 84.66 149.96"/><polygon class="cls-160" points="84.51 149.96 86.11 142.2 86.11 142.91 84.66 149.96 84.51 149.96"/><polygon class="cls-161" points="84.36 149.96 86.11 141.5 86.11 142.2 84.51 149.96 84.36 149.96"/><polygon class="cls-162" points="84.22 149.96 86.1 140.79 86.11 141.5 84.36 149.96 84.22 149.96"/><polygon class="cls-163" points="84.07 149.96 86.1 140.09 86.1 140.79 84.22 149.96 84.07 149.96"/><polygon class="cls-164" points="83.92 149.96 86.1 139.38 86.1 140.09 84.07 149.96 83.92 149.96"/><polygon class="cls-165" points="83.78 149.96 86.1 138.68 86.1 139.38 83.92 149.96 83.78 149.96"/><polygon class="cls-166" points="83.63 149.96 86.1 137.97 86.1 138.68 83.78 149.96 83.63 149.96"/><polygon class="cls-167" points="83.48 149.96 86.1 137.27 86.1 137.97 83.63 149.96 83.48 149.96"/><polygon class="cls-168" points="83.34 149.96 86.09 136.56 86.1 137.27 83.48 149.96 83.34 149.96"/><polygon class="cls-169" points="83.19 149.96 86.09 135.86 86.09 136.56 83.34 149.96 83.19 149.96"/><polygon class="cls-170" points="83.05 149.96 86.09 135.15 86.09 135.86 83.19 149.96 83.05 149.96"/><polygon class="cls-171" points="82.9 149.96 86.09 134.45 86.09 135.15 83.05 149.96 82.9 149.96"/><polygon class="cls-172" points="82.75 149.96 86.09 133.75 86.09 134.45 82.9 149.96 82.75 149.96"/><polygon class="cls-173" points="82.61 149.96 86.09 133.04 86.09 133.75 82.75 149.96 82.61 149.96"/><polygon class="cls-174" points="82.46 149.96 86.09 132.34 86.09 133.04 82.61 149.96 82.46 149.96"/><polygon class="cls-175" points="82.31 149.96 86.08 131.63 86.09 132.34 82.46 149.96 82.31 149.96"/><polygon class="cls-176" points="82.17 149.96 86.08 130.93 86.08 131.63 82.31 149.96 82.17 149.96"/><polygon class="cls-177" points="82.02 149.96 86.08 130.22 86.08 130.93 82.17 149.96 82.02 149.96"/><polygon class="cls-178" points="81.87 149.96 86.08 129.52 86.08 130.22 82.02 149.96 81.87 149.96"/><polygon class="cls-179" points="81.73 149.96 86.08 128.81 86.08 129.52 81.87 149.96 81.73 149.96"/><polygon class="cls-180" points="81.58 149.96 86.08 128.11 86.08 128.81 81.73 149.96 81.58 149.96"/><polygon class="cls-181" points="81.44 149.96 86.08 127.4 86.08 128.11 81.58 149.96 81.44 149.96"/><polygon class="cls-182" points="81.29 149.96 86.08 126.7 86.08 127.4 81.44 149.96 81.29 149.96"/><polygon class="cls-183" points="81.14 149.96 86.07 125.99 86.08 126.7 81.29 149.96 81.14 149.96"/><polygon class="cls-184" points="81 149.96 86.07 125.29 86.07 125.99 81.14 149.96 81 149.96"/><polygon class="cls-185" points="80.85 149.96 86.07 124.58 86.07 125.29 81 149.96 80.85 149.96"/><polygon class="cls-186" points="80.7 149.96 86.07 123.88 86.07 124.58 80.85 149.96 80.7 149.96"/><polygon class="cls-187" points="80.56 149.96 86.07 123.17 86.07 123.88 80.7 149.96 80.56 149.96"/><polygon class="cls-188" points="80.41 149.96 86.07 122.47 86.07 123.17 80.56 149.96 80.41 149.96"/><polygon class="cls-189" points="80.26 149.96 86.07 121.77 86.07 122.47 80.41 149.96 80.26 149.96"/><polygon class="cls-190" points="80.12 149.96 86.06 121.06 86.07 121.77 80.26 149.96 80.12 149.96"/><polygon class="cls-191" points="79.97 149.96 86.06 120.36 86.06 121.06 80.12 149.96 79.97 149.96"/><polygon class="cls-192" points="79.82 149.96 86.06 119.65 86.06 120.36 79.97 149.96 79.82 149.96"/><polygon class="cls-193" points="79.68 149.97 86.06 118.95 86.06 119.65 79.82 149.96 79.68 149.97"/><polygon class="cls-194" points="79.53 149.97 86.06 118.24 86.06 118.95 79.68 149.97 79.53 149.97"/><polygon class="cls-194" points="79.38 149.97 86.06 117.54 86.06 118.24 79.53 149.97 79.38 149.97"/><polygon class="cls-195" points="79.24 149.97 86.06 116.83 86.06 117.54 79.38 149.97 79.24 149.97"/><polygon class="cls-196" points="79.09 149.97 86.06 116.13 86.06 116.83 79.24 149.97 79.09 149.97"/><polygon class="cls-197" points="78.94 149.97 86.05 115.42 86.06 116.13 79.09 149.97 78.94 149.97"/><polygon class="cls-198" points="78.8 149.97 86.05 114.72 86.05 115.42 78.94 149.97 78.8 149.97"/><polygon class="cls-199" points="78.65 149.97 86.05 114.02 86.05 114.72 78.8 149.97 78.65 149.97"/><polygon class="cls-200" points="78.5 149.97 86.05 113.31 86.05 114.02 78.65 149.97 78.5 149.97"/><polygon class="cls-201" points="78.36 149.97 86.05 112.61 86.05 113.31 78.5 149.97 78.36 149.97"/><polygon class="cls-202" points="78.21 149.97 86.05 111.9 86.05 112.61 78.36 149.97 78.21 149.97"/><polygon class="cls-203" points="78.07 149.97 86.05 111.2 86.05 111.9 78.21 149.97 78.07 149.97"/><polygon class="cls-204" points="77.92 149.97 86.04 110.49 86.05 111.2 78.07 149.97 77.92 149.97"/><polygon class="cls-205" points="77.77 149.97 86.04 109.79 86.04 110.49 77.92 149.97 77.77 149.97"/><polygon class="cls-206" points="77.63 149.97 86.04 109.08 86.04 109.79 77.77 149.97 77.63 149.97"/><polygon class="cls-207" points="77.48 149.97 86.04 108.38 86.04 109.08 77.63 149.97 77.48 149.97"/><polygon class="cls-208" points="77.33 149.97 86.04 107.67 86.04 108.38 77.48 149.97 77.33 149.97"/><polygon class="cls-209" points="77.19 149.97 86.04 106.97 86.04 107.67 77.33 149.97 77.19 149.97"/><polygon class="cls-210" points="77.04 149.97 86.03 106.26 86.04 106.97 77.19 149.97 77.04 149.97"/><polygon class="cls-211" points="76.89 149.97 86.03 105.56 86.03 106.26 77.04 149.97 76.89 149.97"/><polygon class="cls-212" points="76.75 149.97 86.03 104.85 86.03 105.56 76.89 149.97 76.75 149.97"/><polygon class="cls-213" points="76.6 149.97 86.03 104.15 86.03 104.85 76.75 149.97 76.6 149.97"/><polygon class="cls-214" points="76.45 149.97 86.03 103.44 86.03 104.15 76.6 149.97 76.45 149.97"/><polygon class="cls-215" points="76.31 149.97 86.03 102.74 86.03 103.44 76.45 149.97 76.31 149.97"/><polygon class="cls-216" points="76.29 149.97 76.17 149.95 86.03 102.04 86.03 102.74 76.31 149.97 76.29 149.97"/><polygon class="cls-217" points="76.17 149.95 76.03 149.92 86.03 101.33 86.03 102.04 76.17 149.95"/><polygon class="cls-218" points="76.03 149.92 75.89 149.89 86.02 100.63 86.03 101.33 76.03 149.92"/><polygon class="cls-219" points="75.89 149.89 75.75 149.86 86.02 99.92 86.02 100.63 75.89 149.89"/><polygon class="cls-220" points="75.75 149.86 75.61 149.83 86.02 99.22 86.02 99.92 75.75 149.86"/><polygon class="cls-221" points="75.61 149.83 75.47 149.8 86.02 98.51 86.02 99.22 75.61 149.83"/><polygon class="cls-222" points="75.47 149.8 75.33 149.77 86.02 97.81 86.02 98.51 75.47 149.8"/><polygon class="cls-223" points="75.33 149.77 75.18 149.74 86.02 97.1 86.02 97.81 75.33 149.77"/><polygon class="cls-224" points="75.18 149.74 75.04 149.71 86.02 96.4 86.02 97.1 75.18 149.74"/><polygon class="cls-225" points="75.04 149.71 74.9 149.69 86.02 95.69 86.02 96.4 75.04 149.71"/><polygon class="cls-226" points="74.9 149.69 74.76 149.66 86.01 94.99 86.02 95.69 74.9 149.69"/><polygon class="cls-227" points="74.76 149.66 74.62 149.63 86.01 94.28 86.01 94.99 74.76 149.66"/><polygon class="cls-228" points="74.62 149.63 74.48 149.6 86.01 93.58 86.01 94.28 74.62 149.63"/><polygon class="cls-229" points="74.48 149.6 74.34 149.57 86.01 92.88 86.01 93.58 74.48 149.6"/><polygon class="cls-230" points="74.34 149.57 74.2 149.54 86.01 92.17 86.01 92.88 74.34 149.57"/><polygon class="cls-231" points="74.2 149.54 74.06 149.51 86.01 91.47 86.01 92.17 74.2 149.54"/><polygon class="cls-232" points="74.06 149.51 73.92 149.48 86 90.76 86.01 91.47 74.06 149.51"/><polygon class="cls-233" points="73.92 149.48 73.78 149.45 86 90.06 86 90.76 73.92 149.48"/><polygon class="cls-234" points="73.78 149.45 73.64 149.43 86 89.35 86 90.06 73.78 149.45"/><polygon class="cls-235" points="73.64 149.43 73.5 149.4 86 88.65 86 89.35 73.64 149.43"/><polygon class="cls-236" points="73.5 149.4 73.36 149.37 86 87.94 86 88.65 73.5 149.4"/><polygon class="cls-237" points="73.36 149.37 73.22 149.34 86 87.24 86 87.94 73.36 149.37"/><polygon class="cls-238" points="73.22 149.34 73.08 149.31 86 86.53 86 87.24 73.22 149.34"/><polygon class="cls-239" points="73.08 149.31 72.94 149.28 86 85.83 86 86.53 73.08 149.31"/><polygon class="cls-240" points="72.94 149.28 72.8 149.25 85.99 85.12 86 85.83 72.94 149.28"/><polygon class="cls-241" points="72.8 149.25 72.66 149.22 85.99 84.42 85.99 85.12 72.8 149.25"/><polygon class="cls-242" points="72.66 149.22 72.52 149.19 85.99 83.72 85.99 84.42 72.66 149.22"/><polygon class="cls-243" points="72.52 149.19 72.38 149.16 85.99 83.01 85.99 83.72 72.52 149.19"/><polygon class="cls-244" points="72.38 149.16 72.23 149.14 85.99 82.31 85.99 83.01 72.38 149.16"/><polygon class="cls-245" points="72.23 149.14 72.09 149.11 85.99 81.6 85.99 82.31 72.23 149.14"/><polygon class="cls-246" points="72.09 149.11 71.95 149.08 85.98 80.9 85.99 81.6 72.09 149.11"/><polygon class="cls-247" points="71.95 149.08 71.81 149.05 85.98 80.19 85.98 80.9 71.95 149.08"/><polygon class="cls-248" points="71.81 149.05 71.67 149.02 85.98 79.49 85.98 80.19 71.81 149.05"/><polygon class="cls-249" points="71.67 149.02 71.53 148.99 85.98 78.78 85.98 79.49 71.67 149.02"/><polygon class="cls-250" points="71.53 148.99 71.39 148.96 85.98 78.08 85.98 78.78 71.53 148.99"/><polygon class="cls-251" points="71.39 148.96 71.25 148.93 85.98 77.37 85.98 78.08 71.39 148.96"/><polygon class="cls-252" points="71.25 148.93 71.11 148.91 85.98 76.67 85.98 77.37 71.25 148.93"/><polygon class="cls-253" points="71.11 148.91 70.97 148.88 85.98 75.96 85.98 76.67 71.11 148.91"/><polygon class="cls-254" points="70.97 148.88 70.83 148.85 85.89 75.66 85.97 75.66 85.98 75.96 70.97 148.88"/><polygon class="cls-255" points="70.83 148.85 70.69 148.82 85.74 75.67 85.89 75.66 70.83 148.85"/><polygon class="cls-256" points="70.69 148.82 70.55 148.79 85.6 75.67 85.74 75.67 70.69 148.82"/><polygon class="cls-257" points="70.55 148.79 70.41 148.76 85.45 75.67 85.6 75.67 70.55 148.79"/><polygon class="cls-258" points="70.41 148.76 70.27 148.73 85.31 75.67 85.45 75.67 70.41 148.76"/><polygon class="cls-259" points="70.27 148.73 70.13 148.7 85.16 75.67 85.31 75.67 70.27 148.73"/><polygon class="cls-260" points="70.13 148.7 70.11 148.7 70.11 148.09 85.01 75.67 85.16 75.67 70.13 148.7"/><polygon class="cls-261" points="70.11 147.38 84.87 75.67 85.01 75.67 70.11 148.09 70.11 147.38"/><polygon class="cls-262" points="70.11 146.68 84.72 75.67 84.87 75.67 70.11 147.38 70.11 146.68"/><polygon class="cls-263" points="70.11 145.97 84.57 75.67 84.72 75.67 70.11 146.68 70.11 145.97"/><polygon class="cls-264" points="70.1 145.27 84.43 75.67 84.57 75.67 70.11 145.97 70.1 145.27"/><polygon class="cls-265" points="70.1 144.56 84.28 75.67 84.43 75.67 70.1 145.27 70.1 144.56"/><polygon class="cls-266" points="70.1 143.86 84.13 75.67 84.28 75.67 70.1 144.56 70.1 143.86"/><polygon class="cls-267" points="70.1 143.15 83.99 75.67 84.13 75.67 70.1 143.86 70.1 143.15"/><polygon class="cls-268" points="70.1 142.45 83.84 75.67 83.99 75.67 70.1 143.15 70.1 142.45"/><polygon class="cls-269" points="70.1 141.74 83.69 75.67 83.84 75.67 70.1 142.45 70.1 141.74"/><polygon class="cls-270" points="70.09 141.04 83.55 75.67 83.69 75.67 70.1 141.74 70.09 141.04"/><polygon class="cls-271" points="70.09 140.33 83.4 75.67 83.55 75.67 70.09 141.04 70.09 140.33"/><polygon class="cls-272" points="70.09 139.63 83.25 75.67 83.4 75.67 70.09 140.33 70.09 139.63"/><polygon class="cls-273" points="70.09 138.93 83.11 75.67 83.25 75.67 70.09 139.63 70.09 138.93"/><polygon class="cls-274" points="70.09 138.22 82.96 75.67 83.11 75.67 70.09 138.93 70.09 138.22"/><polygon class="cls-275" points="70.09 137.52 82.81 75.67 82.96 75.67 70.09 138.22 70.09 137.52"/><polygon class="cls-276" points="70.09 136.81 82.67 75.67 82.81 75.67 70.09 137.52 70.09 136.81"/><polygon class="cls-277" points="70.08 136.11 82.52 75.67 82.67 75.67 70.09 136.81 70.08 136.11"/><polygon class="cls-278" points="70.08 135.4 82.38 75.67 82.52 75.67 70.08 136.11 70.08 135.4"/><polygon class="cls-279" points="70.08 134.7 82.23 75.67 82.38 75.67 70.08 135.4 70.08 134.7"/><polygon class="cls-280" points="70.08 133.99 82.08 75.67 82.23 75.67 70.08 134.7 70.08 133.99"/><polygon class="cls-281" points="70.08 133.29 81.94 75.67 82.08 75.67 70.08 133.99 70.08 133.29"/><polygon class="cls-282" points="70.08 132.58 81.79 75.67 81.94 75.67 70.08 133.29 70.08 132.58"/><polygon class="cls-283" points="70.08 131.88 81.64 75.67 81.79 75.67 70.08 132.58 70.08 131.88"/><polygon class="cls-284" points="70.08 131.17 81.5 75.67 81.64 75.67 70.08 131.88 70.08 131.17"/><polygon class="cls-285" points="70.07 130.47 81.35 75.67 81.5 75.67 70.08 131.17 70.07 130.47"/><polygon class="cls-286" points="70.07 129.76 81.2 75.67 81.35 75.67 70.07 130.47 70.07 129.76"/><polygon class="cls-287" points="70.07 129.06 81.06 75.67 81.2 75.67 70.07 129.76 70.07 129.06"/><polygon class="cls-288" points="70.07 128.35 80.91 75.67 81.06 75.67 70.07 129.06 70.07 128.35"/><polygon class="cls-289" points="70.07 127.65 80.77 75.67 80.91 75.67 70.07 128.35 70.07 127.65"/><polygon class="cls-290" points="70.07 126.95 80.62 75.67 80.77 75.67 70.07 127.65 70.07 126.95"/><polygon class="cls-291" points="70.07 126.24 80.47 75.67 80.62 75.67 70.07 126.95 70.07 126.24"/><polygon class="cls-292" points="70.06 125.54 80.33 75.67 80.47 75.67 70.07 126.24 70.06 125.54"/><polygon class="cls-293" points="70.06 124.83 80.18 75.68 80.33 75.67 70.06 125.54 70.06 124.83"/><polygon class="cls-294" points="70.06 124.13 80.03 75.68 80.18 75.68 70.06 124.83 70.06 124.13"/><polygon class="cls-295" points="70.06 123.42 79.89 75.68 80.03 75.68 70.06 124.13 70.06 123.42"/><polygon class="cls-296" points="70.06 122.72 79.74 75.68 79.89 75.68 70.06 123.42 70.06 122.72"/><polygon class="cls-297" points="70.06 122.01 79.59 75.68 79.74 75.68 70.06 122.72 70.06 122.01"/><polygon class="cls-298" points="70.06 121.31 79.45 75.68 79.59 75.68 70.06 122.01 70.06 121.31"/><polygon class="cls-299" points="70.06 120.6 79.3 75.68 79.45 75.68 70.06 121.31 70.06 120.6"/><polygon class="cls-300" points="70.05 119.9 79.15 75.68 79.3 75.68 70.06 120.6 70.05 119.9"/><polygon class="cls-301" points="70.05 119.19 79.01 75.68 79.15 75.68 70.05 119.9 70.05 119.19"/><polygon class="cls-302" points="70.05 118.49 78.86 75.68 79.01 75.68 70.05 119.19 70.05 118.49"/><polygon class="cls-303" points="70.05 117.79 78.72 75.68 78.86 75.68 70.05 118.49 70.05 117.79"/><polygon class="cls-304" points="70.05 117.08 78.57 75.68 78.72 75.68 70.05 117.79 70.05 117.08"/><polygon class="cls-305" points="70.05 116.38 78.42 75.68 78.57 75.68 70.05 117.08 70.05 116.38"/><polygon class="cls-306" points="70.05 115.67 78.28 75.68 78.42 75.68 70.05 116.38 70.05 115.67"/><polygon class="cls-307" points="70.04 114.97 78.13 75.68 78.28 75.68 70.05 115.67 70.04 114.97"/><polygon class="cls-308" points="70.04 114.26 77.98 75.68 78.13 75.68 70.04 114.97 70.04 114.26"/><polygon class="cls-309" points="70.04 113.56 77.84 75.68 77.98 75.68 70.04 114.26 70.04 113.56"/><polygon class="cls-310" points="70.04 112.85 77.69 75.68 77.84 75.68 70.04 113.56 70.04 112.85"/><polygon class="cls-311" points="70.04 112.15 77.54 75.68 77.69 75.68 70.04 112.85 70.04 112.15"/><polygon class="cls-312" points="70.04 111.44 77.4 75.68 77.54 75.68 70.04 112.15 70.04 111.44"/><polygon class="cls-313" points="70.03 110.74 77.25 75.68 77.4 75.68 70.04 111.44 70.03 110.74"/><polygon class="cls-314" points="70.03 110.03 77.1 75.68 77.25 75.68 70.03 110.74 70.03 110.03"/><polygon class="cls-315" points="70.03 109.33 76.96 75.68 77.1 75.68 70.03 110.03 70.03 109.33"/><polygon class="cls-316" points="70.03 108.63 76.81 75.68 76.96 75.68 70.03 109.33 70.03 108.63"/><polygon class="cls-317" points="70.03 107.92 76.66 75.68 76.81 75.68 70.03 108.63 70.03 107.92"/><polygon class="cls-317" points="76.66 75.68 70.03 107.92 69.97 75.7 76.66 75.68"/></g><g class="cls-318"><polygon class="cls-319" points="74.89 155.05 73.91 145.91 133.54 139.57 133.57 154.94 74.89 155.05"/><polygon class="cls-319" points="73.91 145.91 73.85 145.27 133.54 138.92 133.54 139.57 73.91 145.91"/><polygon class="cls-320" points="73.85 145.27 73.78 144.63 133.54 138.27 133.54 138.92 73.85 145.27"/><polygon class="cls-321" points="73.78 144.63 73.71 143.98 133.53 137.62 133.54 138.27 73.78 144.63"/><polygon class="cls-322" points="73.71 143.98 73.68 143.69 73.68 143.33 133.53 136.97 133.53 137.62 73.71 143.98"/><polygon class="cls-323" points="73.67 142.68 133.53 136.31 133.53 136.97 73.68 143.33 73.67 142.68"/><polygon class="cls-324" points="73.67 142.03 133.53 135.66 133.53 136.31 73.67 142.68 73.67 142.03"/><polygon class="cls-325" points="73.67 141.38 133.53 135.01 133.53 135.66 73.67 142.03 73.67 141.38"/><polygon class="cls-326" points="73.67 140.73 133.53 134.36 133.53 135.01 73.67 141.38 73.67 140.73"/><polygon class="cls-327" points="73.67 140.08 133.53 133.71 133.53 134.36 73.67 140.73 73.67 140.08"/><polygon class="cls-328" points="73.67 139.43 133.53 133.06 133.53 133.71 73.67 140.08 73.67 139.43"/><polygon class="cls-329" points="73.67 138.78 133.52 132.41 133.53 133.06 73.67 139.43 73.67 138.78"/><polygon class="cls-330" points="73.67 138.12 133.52 131.76 133.52 132.41 73.67 138.78 73.67 138.12"/><polygon class="cls-331" points="73.67 137.47 133.52 131.1 133.52 131.76 73.67 138.12 73.67 137.47"/><polygon class="cls-332" points="73.66 136.82 133.52 130.45 133.52 131.1 73.67 137.47 73.66 136.82"/><polygon class="cls-333" points="73.66 136.17 133.52 129.8 133.52 130.45 73.66 136.82 73.66 136.17"/><polygon class="cls-334" points="73.66 135.52 133.52 129.15 133.52 129.8 73.66 136.17 73.66 135.52"/><polygon class="cls-335" points="73.66 134.87 133.52 128.5 133.52 129.15 73.66 135.52 73.66 134.87"/><polygon class="cls-336" points="73.66 134.22 133.51 127.85 133.52 128.5 73.66 134.87 73.66 134.22"/><polygon class="cls-337" points="73.66 133.57 133.51 127.2 133.51 127.85 73.66 134.22 73.66 133.57"/><polygon class="cls-338" points="73.66 132.91 133.51 126.55 133.51 127.2 73.66 133.57 73.66 132.91"/><polygon class="cls-339" points="73.66 132.26 133.51 125.9 133.51 126.55 73.66 132.91 73.66 132.26"/><polygon class="cls-340" points="73.65 131.61 133.51 125.25 133.51 125.9 73.66 132.26 73.65 131.61"/><polygon class="cls-341" points="73.65 130.96 133.51 124.59 133.51 125.25 73.65 131.61 73.65 130.96"/><polygon class="cls-342" points="73.65 130.31 133.51 123.94 133.51 124.59 73.65 130.96 73.65 130.31"/><polygon class="cls-343" points="73.65 129.66 133.51 123.29 133.51 123.94 73.65 130.31 73.65 129.66"/><polygon class="cls-344" points="73.65 129.01 133.5 122.64 133.51 123.29 73.65 129.66 73.65 129.01"/><polygon class="cls-345" points="73.65 128.36 133.5 121.99 133.5 122.64 73.65 129.01 73.65 128.36"/><polygon class="cls-346" points="73.65 127.71 133.5 121.34 133.5 121.99 73.65 128.36 73.65 127.71"/><polygon class="cls-347" points="73.64 127.06 133.5 120.69 133.5 121.34 73.65 127.71 73.64 127.06"/><polygon class="cls-348" points="73.64 126.4 133.5 120.04 133.5 120.69 73.64 127.06 73.64 126.4"/><polygon class="cls-349" points="73.64 125.75 133.5 119.38 133.5 120.04 73.64 126.4 73.64 125.75"/><polygon class="cls-350" points="73.64 125.1 133.5 118.73 133.5 119.38 73.64 125.75 73.64 125.1"/><polygon class="cls-351" points="73.64 124.45 133.5 118.08 133.5 118.73 73.64 125.1 73.64 124.45"/><polygon class="cls-352" points="73.64 123.8 133.5 117.43 133.5 118.08 73.64 124.45 73.64 123.8"/><polygon class="cls-353" points="73.64 123.15 133.49 116.78 133.5 117.43 73.64 123.8 73.64 123.15"/><polygon class="cls-354" points="73.64 122.5 133.49 116.13 133.49 116.78 73.64 123.15 73.64 122.5"/><polygon class="cls-355" points="73.63 121.85 133.49 115.48 133.49 116.13 73.64 122.5 73.63 121.85"/><polygon class="cls-356" points="73.63 121.19 133.49 114.83 133.49 115.48 73.63 121.85 73.63 121.19"/><polygon class="cls-357" points="73.63 120.54 133.49 114.18 133.49 114.83 73.63 121.19 73.63 120.54"/><polygon class="cls-358" points="73.63 119.89 133.49 113.52 133.49 114.18 73.63 120.54 73.63 119.89"/><polygon class="cls-359" points="73.63 119.24 133.49 112.87 133.49 113.52 73.63 119.89 73.63 119.24"/><polygon class="cls-360" points="73.63 118.59 133.49 112.22 133.49 112.87 73.63 119.24 73.63 118.59"/><polygon class="cls-361" points="73.63 117.94 133.48 111.57 133.49 112.22 73.63 118.59 73.63 117.94"/><polygon class="cls-362" points="73.63 117.29 133.48 110.92 133.48 111.57 73.63 117.94 73.63 117.29"/><polygon class="cls-363" points="73.62 116.64 133.48 110.27 133.48 110.92 73.63 117.29 73.62 116.64"/><polygon class="cls-364" points="73.62 115.99 133.48 109.62 133.48 110.27 73.62 116.64 73.62 115.99"/><polygon class="cls-365" points="73.62 115.33 133.48 108.97 133.48 109.62 73.62 115.99 73.62 115.33"/><polygon class="cls-366" points="73.62 114.68 133.48 108.31 133.48 108.97 73.62 115.33 73.62 114.68"/><polygon class="cls-367" points="73.62 114.03 133.48 107.66 133.48 108.31 73.62 114.68 73.62 114.03"/><polygon class="cls-368" points="73.62 113.38 133.47 107.01 133.48 107.66 73.62 114.03 73.62 113.38"/><polygon class="cls-369" points="73.62 112.73 133.47 106.36 133.47 107.01 73.62 113.38 73.62 112.73"/><polygon class="cls-370" points="73.61 112.08 133.47 105.71 133.47 106.36 73.62 112.73 73.61 112.08"/><polygon class="cls-371" points="73.61 111.43 133.47 105.06 133.47 105.71 73.61 112.08 73.61 111.43"/><polygon class="cls-372" points="73.61 110.78 133.47 104.41 133.47 105.06 73.61 111.43 73.61 110.78"/><polygon class="cls-373" points="73.61 110.13 133.47 103.76 133.47 104.41 73.61 110.78 73.61 110.13"/><polygon class="cls-374" points="73.61 109.47 133.47 103.11 133.47 103.76 73.61 110.13 73.61 109.47"/><polygon class="cls-375" points="73.61 108.82 133.47 102.45 133.47 103.11 73.61 109.47 73.61 108.82"/><polygon class="cls-376" points="73.61 108.17 133.46 101.8 133.47 102.45 73.61 108.82 73.61 108.17"/><polygon class="cls-377" points="73.61 107.52 133.46 101.15 133.46 101.8 73.61 108.17 73.61 107.52"/><polygon class="cls-378" points="73.61 106.87 133.46 100.5 133.46 101.15 73.61 107.52 73.61 106.87"/><polygon class="cls-379" points="73.6 106.22 133.46 99.85 133.46 100.5 73.61 106.87 73.6 106.22"/><polygon class="cls-380" points="73.6 105.57 133.46 99.2 133.46 99.85 73.6 106.22 73.6 105.57"/><polygon class="cls-381" points="73.6 104.92 133.46 98.55 133.46 99.2 73.6 105.57 73.6 104.92"/><polygon class="cls-382" points="73.6 104.27 133.46 97.9 133.46 98.55 73.6 104.92 73.6 104.27"/><polygon class="cls-383" points="73.6 103.61 133.46 97.25 133.46 97.9 73.6 104.27 73.6 103.61"/><polygon class="cls-384" points="73.6 102.96 133.45 96.59 133.46 97.25 73.6 103.61 73.6 102.96"/><polygon class="cls-385" points="73.6 102.31 133.45 95.94 133.45 96.59 73.6 102.96 73.6 102.31"/><polygon class="cls-317" points="73.59 101.66 133.45 95.29 133.45 95.94 73.6 102.31 73.59 101.66"/><polygon class="cls-317" points="133.45 95.29 73.59 101.66 73.52 61.84 133.38 61.73 133.45 95.29"/></g><g class="cls-386"><g class="cls-387"><polygon class="cls-388" points="115.91 68.97 112.27 68.41 115.91 68.4 115.91 68.97"/><polygon class="cls-389" points="115.91 69.66 107.88 68.42 112.27 68.41 115.91 68.97 115.91 69.66"/><polygon class="cls-390" points="115.91 70.35 103.49 68.42 107.88 68.42 115.91 69.66 115.91 70.35"/><polygon class="cls-391" points="115.91 71.04 99.11 68.43 103.49 68.42 115.91 70.35 115.91 71.04"/><polygon class="cls-392" points="115.91 71.73 94.72 68.44 99.11 68.43 115.91 71.04 115.91 71.73"/><polygon class="cls-393" points="115.91 72.42 90.33 68.45 94.72 68.44 115.91 71.73 115.91 72.42"/><polygon class="cls-394" points="115.92 73.11 85.94 68.46 90.33 68.45 115.91 72.42 115.92 73.11"/><polygon class="cls-395" points="115.92 73.79 81.56 68.47 85.94 68.46 115.92 73.11 115.92 73.79"/><polygon class="cls-396" points="115.92 74.48 77.17 68.47 81.56 68.47 115.92 73.79 115.92 74.48"/><polygon class="cls-397" points="115.92 75.17 73.75 68.63 73.78 68.48 77.17 68.47 115.92 74.48 115.92 75.17"/><polygon class="cls-398" points="115.92 75.86 73.65 69.31 73.75 68.63 115.92 75.17 115.92 75.86"/><polygon class="cls-399" points="115.92 76.55 73.54 69.98 73.65 69.31 115.92 75.86 115.92 76.55"/><polygon class="cls-400" points="115.92 77.24 73.44 70.65 73.54 69.98 115.92 76.55 115.92 77.24"/><polygon class="cls-401" points="115.92 77.93 73.33 71.32 73.44 70.65 115.92 77.24 115.92 77.93"/><polygon class="cls-402" points="115.93 78.62 73.23 72 73.33 71.32 115.92 77.93 115.93 78.62"/><polygon class="cls-403" points="115.93 79.31 73.13 72.67 73.23 72 115.93 78.62 115.93 79.31"/><polygon class="cls-404" points="115.93 79.99 73.02 73.34 73.13 72.67 115.93 79.31 115.93 79.99"/><polygon class="cls-405" points="115.93 80.68 72.92 74.01 73.02 73.34 115.93 79.99 115.93 80.68"/><polygon class="cls-406" points="115.93 81.37 72.81 74.69 72.92 74.01 115.93 80.68 115.93 81.37"/><polygon class="cls-407" points="115.93 82.06 72.71 75.36 72.81 74.69 115.93 81.37 115.93 82.06"/><polygon class="cls-408" points="115.93 82.75 72.6 76.03 72.71 75.36 115.93 82.06 115.93 82.75"/><polygon class="cls-409" points="115.94 83.44 72.5 76.7 72.6 76.03 115.93 82.75 115.94 83.44"/><polygon class="cls-410" points="115.94 84.13 72.4 77.38 72.5 76.7 115.94 83.44 115.94 84.13"/><polygon class="cls-411" points="115.94 84.82 72.29 78.05 72.4 77.38 115.94 84.13 115.94 84.82"/><polygon class="cls-412" points="115.94 85.51 72.19 78.72 72.29 78.05 115.94 84.82 115.94 85.51"/><polygon class="cls-413" points="115.94 86.19 72.08 79.39 72.19 78.72 115.94 85.51 115.94 86.19"/><polygon class="cls-414" points="115.94 86.88 71.98 80.07 72.08 79.39 115.94 86.19 115.94 86.88"/><polygon class="cls-415" points="115.94 87.57 71.88 80.74 71.98 80.07 115.94 86.88 115.94 87.57"/><polygon class="cls-416" points="115.94 88.26 71.77 81.41 71.88 80.74 115.94 87.57 115.94 88.26"/><polygon class="cls-417" points="115.95 88.95 71.67 82.08 71.77 81.41 115.94 88.26 115.95 88.95"/><polygon class="cls-418" points="115.95 89.64 71.56 82.76 71.67 82.08 115.95 88.95 115.95 89.64"/><polygon class="cls-419" points="115.95 89.8 115.87 90.32 71.46 83.43 71.56 82.76 115.95 89.64 115.95 89.8"/><rect class="cls-420" x="93.27" y="64.74" width="0.68" height="44.94" transform="matrix(0.15, -0.99, 0.99, 0.15, -6.91, 166.35)"/><rect class="cls-421" x="93.17" y="65.41" width="0.68" height="44.94" transform="translate(-7.66 166.82) rotate(-81.19)"/><rect class="cls-422" x="93.06" y="66.08" width="0.68" height="44.94" transform="translate(-8.42 167.29) rotate(-81.19)"/><rect class="cls-423" x="92.96" y="66.76" width="0.68" height="44.94" transform="translate(-9.17 167.75) rotate(-81.19)"/><rect class="cls-424" x="92.85" y="67.43" width="0.68" height="44.94" transform="translate(-9.92 168.22) rotate(-81.19)"/><rect class="cls-425" x="92.75" y="68.1" width="0.68" height="44.94" transform="translate(-10.68 168.69) rotate(-81.19)"/><rect class="cls-426" x="92.64" y="68.77" width="0.68" height="44.94" transform="translate(-11.43 169.15) rotate(-81.19)"/><rect class="cls-427" x="92.54" y="69.45" width="0.68" height="44.94" transform="translate(-12.18 169.62) rotate(-81.19)"/><rect class="cls-428" x="92.44" y="70.12" width="0.68" height="44.94" transform="translate(-12.94 170.08) rotate(-81.19)"/><rect class="cls-429" x="92.33" y="70.79" width="0.68" height="44.94" transform="matrix(0.15, -0.99, 0.99, 0.15, -13.69, 170.55)"/><rect class="cls-430" x="92.23" y="71.46" width="0.68" height="44.94" transform="translate(-14.44 171.02) rotate(-81.19)"/><rect class="cls-431" x="92.12" y="72.14" width="0.68" height="44.94" transform="translate(-15.19 171.48) rotate(-81.19)"/><rect class="cls-432" x="92.02" y="72.81" width="0.68" height="44.94" transform="translate(-15.95 171.95) rotate(-81.19)"/><rect class="cls-433" x="91.91" y="73.48" width="0.68" height="44.94" transform="translate(-16.7 172.42) rotate(-81.19)"/><rect class="cls-434" x="91.81" y="74.16" width="0.68" height="44.94" transform="matrix(0.15, -0.99, 0.99, 0.15, -17.45, 172.88)"/><rect class="cls-435" x="91.71" y="74.83" width="0.68" height="44.94" transform="translate(-18.21 173.35) rotate(-81.19)"/><rect class="cls-436" x="91.6" y="75.5" width="0.68" height="44.94" transform="translate(-18.96 173.82) rotate(-81.19)"/><rect class="cls-437" x="91.5" y="76.17" width="0.68" height="44.94" transform="translate(-19.71 174.28) rotate(-81.19)"/><rect class="cls-438" x="91.39" y="76.85" width="0.68" height="44.94" transform="translate(-20.46 174.75) rotate(-81.19)"/><rect class="cls-439" x="91.29" y="77.52" width="0.68" height="44.94" transform="translate(-21.22 175.22) rotate(-81.19)"/><rect class="cls-440" x="91.18" y="78.19" width="0.68" height="44.94" transform="translate(-21.97 175.68) rotate(-81.19)"/><rect class="cls-441" x="91.08" y="78.86" width="0.68" height="44.94" transform="translate(-22.72 176.15) rotate(-81.19)"/><polygon class="cls-442" points="113.57 105.11 113.47 105.78 69.07 98.9 69.07 98.85 69.16 98.23 113.57 105.11"/><polygon class="cls-443" points="113.47 105.78 113.36 106.46 69.07 99.59 69.07 98.9 113.47 105.78"/><polygon class="cls-444" points="113.36 106.46 113.26 107.13 69.07 100.28 69.07 99.59 113.36 106.46"/><polygon class="cls-445" points="113.26 107.13 113.16 107.8 69.07 100.97 69.07 100.28 113.26 107.13"/><polygon class="cls-446" points="113.16 107.8 113.05 108.48 69.07 101.66 69.07 100.97 113.16 107.8"/><polygon class="cls-447" points="113.05 108.48 112.95 109.15 69.07 102.35 69.07 101.66 113.05 108.48"/><polygon class="cls-448" points="112.95 109.15 112.84 109.82 69.08 103.03 69.07 102.35 112.95 109.15"/><polygon class="cls-449" points="112.84 109.82 112.74 110.49 69.08 103.72 69.08 103.03 112.84 109.82"/><polygon class="cls-450" points="112.74 110.49 112.64 111.17 69.08 104.41 69.08 103.72 112.74 110.49"/><polygon class="cls-451" points="112.64 111.17 112.53 111.84 69.08 105.1 69.08 104.41 112.64 111.17"/><polygon class="cls-452" points="112.53 111.84 112.43 112.51 69.08 105.79 69.08 105.1 112.53 111.84"/><polygon class="cls-453" points="112.43 112.51 112.32 113.18 69.08 106.48 69.08 105.79 112.43 112.51"/><polygon class="cls-454" points="112.32 113.18 112.22 113.86 69.08 107.17 69.08 106.48 112.32 113.18"/><polygon class="cls-455" points="112.22 113.86 112.11 114.53 69.08 107.86 69.08 107.17 112.22 113.86"/><polygon class="cls-456" points="112.11 114.53 112.01 115.2 69.09 108.55 69.08 107.86 112.11 114.53"/><polygon class="cls-457" points="112.01 115.2 111.91 115.87 69.09 109.23 69.09 108.55 112.01 115.2"/><polygon class="cls-458" points="111.91 115.87 111.8 116.55 69.09 109.92 69.09 109.23 111.91 115.87"/><polygon class="cls-459" points="111.8 116.55 111.7 117.22 69.09 110.61 69.09 109.92 111.8 116.55"/><polygon class="cls-460" points="111.7 117.22 111.59 117.89 69.09 111.3 69.09 110.61 111.7 117.22"/><polygon class="cls-461" points="111.59 117.89 111.49 118.56 69.09 111.99 69.09 111.3 111.59 117.89"/><polygon class="cls-462" points="111.49 118.56 111.38 119.24 69.09 112.68 69.09 111.99 111.49 118.56"/><polygon class="cls-463" points="111.38 119.24 111.28 119.91 69.09 113.37 69.09 112.68 111.38 119.24"/><polygon class="cls-464" points="111.28 119.91 111.17 120.58 69.1 114.06 69.09 113.37 111.28 119.91"/><polygon class="cls-465" points="111.17 120.58 111.07 121.25 69.1 114.75 69.1 114.06 111.17 120.58"/><polygon class="cls-466" points="111.07 121.25 110.97 121.93 69.1 115.44 69.1 114.75 111.07 121.25"/><polygon class="cls-467" points="110.97 121.93 110.86 122.6 69.1 116.13 69.1 115.44 110.97 121.93"/><polygon class="cls-468" points="110.86 122.6 110.76 123.27 69.1 116.81 69.1 116.13 110.86 122.6"/><polygon class="cls-469" points="110.76 123.27 110.65 123.94 69.1 117.5 69.1 116.81 110.76 123.27"/><polygon class="cls-470" points="110.65 123.94 110.55 124.62 69.11 118.19 69.1 117.5 110.65 123.94"/><polygon class="cls-471" points="110.55 124.62 110.44 125.29 69.11 118.88 69.11 118.19 110.55 124.62"/><polygon class="cls-472" points="110.44 125.29 110.34 125.96 69.11 119.57 69.11 118.88 110.44 125.29"/><polygon class="cls-473" points="110.34 125.96 110.24 126.64 69.11 120.26 69.11 119.57 110.34 125.96"/><polygon class="cls-474" points="110.24 126.64 110.13 127.31 69.11 120.95 69.11 120.26 110.24 126.64"/><polygon class="cls-475" points="110.13 127.31 110.03 127.98 69.11 121.64 69.11 120.95 110.13 127.31"/><polygon class="cls-476" points="110.03 127.98 109.92 128.65 69.11 122.33 69.11 121.64 110.03 127.98"/><polygon class="cls-477" points="109.92 128.65 109.82 129.33 69.11 123.02 69.11 122.33 109.92 128.65"/><polygon class="cls-478" points="109.82 129.33 109.72 130 69.11 123.7 69.11 123.02 109.82 129.33"/><polygon class="cls-479" points="109.72 130 109.61 130.67 69.12 124.39 69.11 123.7 109.72 130"/><polygon class="cls-480" points="109.61 130.67 109.51 131.34 69.12 125.08 69.12 124.39 109.61 130.67"/><polygon class="cls-481" points="109.51 131.34 109.4 132.02 69.12 125.77 69.12 125.08 109.51 131.34"/><polygon class="cls-482" points="109.4 132.02 109.3 132.69 69.12 126.46 69.12 125.77 109.4 132.02"/><polygon class="cls-483" points="109.3 132.69 109.19 133.36 69.12 127.15 69.12 126.46 109.3 132.69"/><polygon class="cls-484" points="109.19 133.36 109.09 134.03 69.12 127.84 69.12 127.15 109.19 133.36"/><polygon class="cls-485" points="109.09 134.03 108.98 134.71 69.13 128.53 69.12 127.84 109.09 134.03"/><polygon class="cls-486" points="108.98 134.71 108.88 135.38 69.13 129.22 69.13 128.53 108.98 134.71"/><polygon class="cls-487" points="108.88 135.38 108.78 136.05 69.13 129.9 69.13 129.22 108.88 135.38"/><polygon class="cls-487" points="108.78 136.05 105.59 156.62 69.18 156.69 69.13 129.9 108.78 136.05"/></g></g><path class="cls-69" d="M112,53.44h1.43a9.68,9.68,0,0,1-2.32.7,22.79,22.79,0,0,1-6.94.25,21.56,21.56,0,0,1-3.62-.72,22.25,22.25,0,0,1-3.44-1.3,21.06,21.06,0,0,1-3.21-1.87A24.39,24.39,0,0,1,90,47.15a22.74,22.74,0,0,1-2.32-3,22.23,22.23,0,0,1-2.89-6.82,22.53,22.53,0,0,1-.57-3.64,23,23,0,0,1,0-3.72l.1-.91a18.78,18.78,0,0,1,5.32-9.64C89.31,23,86.49,26,86.8,29.84c.27,3.34,2.51,5.93,3.45,9,.63,2.1.09,4.69,1.09,6.63C94.49,51.6,105.8,53.46,112,53.44Z"/><g class="cls-4"><g class="cls-488"><polygon class="cls-489" points="119.06 54.21 119.23 54.11 119.23 54.21 119.06 54.21"/><polygon class="cls-489" points="118.19 54.21 119.23 53.6 119.23 54.11 119.06 54.21 118.19 54.21"/><polygon class="cls-489" points="117.32 54.22 119.23 53.09 119.23 53.6 118.19 54.21 117.32 54.22"/><polygon class="cls-490" points="116.45 54.22 119.23 52.57 119.23 53.09 117.32 54.22 116.45 54.22"/><polygon class="cls-491" points="115.58 54.22 119.23 52.06 119.23 52.57 116.45 54.22 115.58 54.22"/><polygon class="cls-491" points="114.72 54.22 119.23 51.55 119.23 52.06 115.58 54.22 114.72 54.22"/><polygon class="cls-492" points="113.85 54.22 119.23 51.03 119.23 51.55 114.72 54.22 113.85 54.22"/><polygon class="cls-493" points="112.98 54.22 119.23 50.52 119.23 51.03 113.85 54.22 112.98 54.22"/><polygon class="cls-493" points="112.11 54.23 119.22 50.01 119.23 50.52 112.98 54.22 112.11 54.23"/><polygon class="cls-494" points="111.24 54.23 119.22 49.5 119.22 50.01 112.11 54.23 111.24 54.23"/><polygon class="cls-495" points="110.37 54.23 119.22 48.99 119.22 49.5 111.24 54.23 110.37 54.23"/><polygon class="cls-496" points="109.5 54.23 119.22 48.47 119.22 48.99 110.37 54.23 109.5 54.23"/><polygon class="cls-497" points="108.63 54.23 119.22 47.96 119.22 48.47 109.5 54.23 108.63 54.23"/><polygon class="cls-497" points="107.76 54.23 119.22 47.45 119.22 47.96 108.63 54.23 107.76 54.23"/><polygon class="cls-498" points="106.89 54.23 119.22 46.94 119.22 47.45 107.76 54.23 106.89 54.23"/><polygon class="cls-499" points="106.03 54.24 119.22 46.42 119.22 46.94 106.89 54.23 106.03 54.24"/><polygon class="cls-500" points="105.16 54.24 119.22 45.91 119.22 46.42 106.03 54.24 105.16 54.24"/><polygon class="cls-501" points="104.29 54.24 119.22 45.4 119.22 45.91 105.16 54.24 104.29 54.24"/><polygon class="cls-502" points="103.42 54.24 119.22 44.89 119.22 45.4 104.29 54.24 103.42 54.24"/><polygon class="cls-502" points="102.55 54.24 119.21 44.37 119.22 44.89 103.42 54.24 102.55 54.24"/><polygon class="cls-503" points="101.68 54.25 119.21 43.86 119.21 44.37 102.55 54.24 101.68 54.25"/><polygon class="cls-504" points="100.81 54.25 119.21 43.35 119.21 43.86 101.68 54.25 100.81 54.25"/><polygon class="cls-505" points="99.94 54.25 119.21 42.84 119.21 43.35 100.81 54.25 99.94 54.25"/><polygon class="cls-506" points="99.07 54.25 119.21 42.33 119.21 42.84 99.94 54.25 99.07 54.25"/><polygon class="cls-149" points="98.2 54.25 119.21 41.81 119.21 42.33 99.07 54.25 98.2 54.25"/><polygon class="cls-507" points="97.33 54.25 119.21 41.3 119.21 41.81 98.2 54.25 97.33 54.25"/><polygon class="cls-508" points="96.47 54.26 119.21 40.79 119.21 41.3 97.33 54.25 96.47 54.26"/><polygon class="cls-509" points="95.6 54.26 119.2 40.27 119.21 40.79 96.47 54.26 95.6 54.26"/><polygon class="cls-510" points="94.73 54.26 119.2 39.76 119.2 40.27 95.6 54.26 94.73 54.26"/><polygon class="cls-511" points="93.86 54.26 119.2 39.25 119.2 39.26 119.2 39.76 94.73 54.26 93.86 54.26"/><polygon class="cls-512" points="92.99 54.26 118.97 38.87 119.2 39.25 93.86 54.26 92.99 54.26"/><polygon class="cls-512" points="92.12 54.26 118.75 38.49 118.97 38.87 92.99 54.26 92.12 54.26"/><polygon class="cls-513" points="91.25 54.27 118.53 38.11 118.75 38.49 92.12 54.26 91.25 54.27"/><polygon class="cls-514" points="90.38 54.27 118.3 37.73 118.53 38.11 91.25 54.27 90.38 54.27"/><polygon class="cls-515" points="89.51 54.27 118.08 37.35 118.3 37.73 90.38 54.27 89.51 54.27"/><polygon class="cls-516" points="88.64 54.27 117.85 36.97 118.08 37.35 89.51 54.27 88.64 54.27"/><polygon class="cls-517" points="87.77 54.27 117.63 36.59 117.85 36.97 88.64 54.27 87.77 54.27"/><polygon class="cls-518" points="87.55 54.27 87.38 53.99 117.4 36.22 117.63 36.59 87.77 54.27 87.55 54.27"/><rect class="cls-519" x="84.84" y="44.69" width="34.89" height="0.44" transform="translate(-8.61 58.39) rotate(-30.64)"/><rect class="cls-520" x="84.61" y="44.31" width="34.89" height="0.44" transform="translate(-8.45 58.22) rotate(-30.64)"/><rect class="cls-521" x="84.39" y="43.93" width="34.89" height="0.44" transform="translate(-8.29 58.05) rotate(-30.64)"/><rect class="cls-522" x="84.16" y="43.55" width="34.89" height="0.44" transform="translate(-8.12 57.88) rotate(-30.64)"/><rect class="cls-523" x="83.94" y="43.17" width="34.89" height="0.44" transform="translate(-7.96 57.72) rotate(-30.64)"/><rect class="cls-524" x="83.71" y="42.79" width="34.89" height="0.44" transform="translate(-7.8 57.55) rotate(-30.64)"/><rect class="cls-525" x="83.49" y="42.41" width="34.89" height="0.44" transform="translate(-7.64 57.38) rotate(-30.64)"/><rect class="cls-526" x="83.26" y="42.03" width="34.89" height="0.44" transform="translate(-7.48 57.21) rotate(-30.64)"/><rect class="cls-527" x="83.04" y="41.65" width="34.89" height="0.44" transform="translate(-7.31 57.05) rotate(-30.64)"/><rect class="cls-528" x="82.81" y="41.27" width="34.89" height="0.44" transform="translate(-7.15 56.88) rotate(-30.64)"/><rect class="cls-529" x="82.59" y="40.89" width="34.89" height="0.44" transform="translate(-6.99 56.71) rotate(-30.64)"/><rect class="cls-530" x="82.36" y="40.51" width="34.89" height="0.44" transform="translate(-6.83 56.54) rotate(-30.64)"/><rect class="cls-531" x="82.14" y="40.13" width="34.89" height="0.44" transform="translate(-6.67 56.38) rotate(-30.64)"/><rect class="cls-532" x="81.91" y="39.76" width="34.89" height="0.44" transform="translate(-6.5 56.21) rotate(-30.64)"/><rect class="cls-533" x="81.69" y="39.38" width="34.89" height="0.44" transform="translate(-6.34 56.04) rotate(-30.64)"/><rect class="cls-534" x="81.46" y="39" width="34.89" height="0.44" transform="translate(-6.18 55.87) rotate(-30.64)"/><rect class="cls-535" x="81.24" y="38.62" width="34.89" height="0.44" transform="translate(-6.02 55.71) rotate(-30.64)"/><rect class="cls-536" x="81.01" y="38.24" width="34.89" height="0.44" transform="translate(-5.85 55.54) rotate(-30.64)"/><rect class="cls-537" x="80.79" y="37.86" width="34.89" height="0.44" transform="translate(-5.69 55.37) rotate(-30.64)"/><rect class="cls-538" x="80.56" y="37.48" width="34.89" height="0.44" transform="translate(-5.53 55.2) rotate(-30.64)"/><rect class="cls-539" x="80.34" y="37.1" width="34.89" height="0.44" transform="translate(-5.37 55.04) rotate(-30.64)"/><rect class="cls-540" x="80.11" y="36.72" width="34.89" height="0.44" transform="translate(-5.21 54.87) rotate(-30.64)"/><rect class="cls-541" x="79.89" y="36.34" width="34.89" height="0.44" transform="translate(-5.04 54.7) rotate(-30.64)"/><rect class="cls-542" x="79.66" y="35.96" width="34.89" height="0.44" transform="translate(-4.88 54.53) rotate(-30.64)"/><rect class="cls-543" x="79.44" y="35.58" width="34.89" height="0.44" transform="translate(-4.72 54.36) rotate(-30.64)"/><rect class="cls-544" x="79.21" y="35.2" width="34.89" height="0.44" transform="translate(-4.56 54.2) rotate(-30.64)"/><polygon class="cls-545" points="81.54 44.12 81.39 43.88 81.39 43.69 111.33 25.96 111.55 26.34 81.54 44.12"/><polygon class="cls-546" points="81.39 43.17 111.1 25.58 111.33 25.96 81.39 43.69 81.39 43.17"/><polygon class="cls-547" points="81.39 42.66 110.88 25.2 111.1 25.58 81.39 43.17 81.39 42.66"/><polygon class="cls-548" points="81.39 42.15 110.65 24.82 110.88 25.2 81.39 42.66 81.39 42.15"/><polygon class="cls-549" points="81.39 41.64 110.43 24.44 110.65 24.82 81.39 42.15 81.39 41.64"/><polygon class="cls-550" points="81.39 41.13 110.2 24.06 110.43 24.44 81.39 41.64 81.39 41.13"/><polygon class="cls-551" points="81.39 40.61 109.98 23.68 110.2 24.06 81.39 41.13 81.39 40.61"/><polygon class="cls-552" points="81.39 40.1 109.75 23.3 109.98 23.68 81.39 40.61 81.39 40.1"/><polygon class="cls-553" points="81.39 39.59 109.53 22.92 109.75 23.3 81.39 40.1 81.39 39.59"/><polygon class="cls-554" points="81.39 39.08 109.3 22.54 109.53 22.92 81.39 39.59 81.39 39.08"/><polygon class="cls-555" points="81.39 38.56 109.08 22.16 109.3 22.54 81.39 39.08 81.39 38.56"/><polygon class="cls-556" points="81.38 38.05 108.85 21.78 109.08 22.16 81.39 38.56 81.38 38.05"/><polygon class="cls-557" points="81.38 37.54 108.63 21.4 108.85 21.78 81.38 38.05 81.38 37.54"/><polygon class="cls-558" points="81.38 37.03 108.4 21.02 108.63 21.4 81.38 37.54 81.38 37.03"/><polygon class="cls-559" points="81.38 36.52 108.18 20.64 108.4 21.02 81.38 37.03 81.38 36.52"/><polygon class="cls-560" points="81.38 36 107.95 20.26 108.18 20.64 81.38 36.52 81.38 36"/><polygon class="cls-561" points="81.38 35.49 107.73 19.88 107.95 20.26 81.38 36 81.38 35.49"/><polygon class="cls-562" points="81.38 34.98 107.5 19.5 107.73 19.88 81.38 35.49 81.38 34.98"/><polygon class="cls-563" points="81.38 34.47 107.28 19.13 107.5 19.5 81.38 34.98 81.38 34.47"/><polygon class="cls-564" points="81.38 33.95 107.05 18.75 107.28 19.13 81.38 34.47 81.38 33.95"/><polygon class="cls-565" points="81.38 33.44 106.83 18.36 107.05 18.75 81.38 33.95 81.38 33.44"/><polygon class="cls-566" points="81.37 32.93 106.6 17.98 106.83 18.36 81.38 33.44 81.37 32.93"/><polygon class="cls-567" points="81.37 32.41 106.38 17.61 106.6 17.98 81.37 32.93 81.37 32.41"/><polygon class="cls-568" points="81.37 31.9 106.16 17.23 106.38 17.61 81.37 32.41 81.37 31.9"/><polygon class="cls-569" points="81.37 31.39 105.93 16.85 106.16 17.23 81.37 31.9 81.37 31.39"/><polygon class="cls-570" points="81.37 30.88 105.7 16.47 105.93 16.85 81.37 31.39 81.37 30.88"/><polygon class="cls-571" points="81.37 30.37 105.48 16.09 105.7 16.47 81.37 30.88 81.37 30.37"/><polygon class="cls-572" points="81.37 29.85 105.25 15.71 105.48 16.09 81.37 30.37 81.37 29.85"/><polygon class="cls-573" points="81.37 29.34 105.03 15.33 105.25 15.71 81.37 29.85 81.37 29.34"/><polygon class="cls-574" points="81.36 28.83 104.81 14.95 105.03 15.33 81.37 29.34 81.36 28.83"/><polygon class="cls-575" points="81.36 28.32 104.58 14.57 104.81 14.95 81.36 28.83 81.36 28.32"/><polygon class="cls-576" points="81.36 27.8 104.36 14.19 104.58 14.57 81.36 28.32 81.36 27.8"/><polygon class="cls-577" points="81.36 27.29 104.11 13.82 104.14 13.82 104.36 14.19 81.36 27.8 81.36 27.29"/><polygon class="cls-578" points="81.36 26.78 103.25 13.82 104.11 13.82 81.36 27.29 81.36 26.78"/><polygon class="cls-579" points="81.36 26.27 102.38 13.82 103.25 13.82 81.36 26.78 81.36 26.27"/><polygon class="cls-580" points="81.36 25.75 101.51 13.82 102.38 13.82 81.36 26.27 81.36 25.75"/><polygon class="cls-581" points="81.36 25.24 100.64 13.82 101.51 13.82 81.36 25.75 81.36 25.24"/><polygon class="cls-582" points="81.36 24.73 99.77 13.82 100.64 13.82 81.36 25.24 81.36 24.73"/><polygon class="cls-582" points="99.77 13.82 81.36 24.73 81.34 13.86 99.77 13.82"/></g></g></g></g></g></svg>