<svg xmlns="http://www.w3.org/2000/svg" xmlns:xlink="http://www.w3.org/1999/xlink" viewBox="0 0 568.7 173.46"><defs><style>.cls-1{isolation:isolate;}.cls-2{fill:#333;}.cls-3{fill:#4d4d4d;}.cls-4{fill:gray;}.cls-5{fill:#93278f;}.cls-13,.cls-15,.cls-6,.cls-9{mix-blend-mode:overlay;}.cls-6{fill:url(#linear-gradient);}.cls-7{fill:#922c3d;}.cls-8{fill:#db2c3d;}.cls-10{fill:url(#linear-gradient-2);}.cls-11{fill:url(#linear-gradient-3);}.cls-12{fill:url(#linear-gradient-4);}.cls-13{opacity:0.86;}.cls-14{fill:url(#linear-gradient-5);}.cls-15{fill:url(#linear-gradient-6);}</style><linearGradient id="linear-gradient" x1="2131.65" y1="210.59" x2="2163.01" y2="145.83" gradientTransform="matrix(-1, 0.05, 0.05, 1, 2178.94, -135.16)" gradientUnits="userSpaceOnUse"><stop offset="0" stop-color="#d4145a"/><stop offset="0.32" stop-color="#c31968"/><stop offset="0.94" stop-color="#98268b"/><stop offset="1" stop-color="#93278f"/></linearGradient><linearGradient id="linear-gradient-2" x1="2251.65" y1="-283.98" x2="2227.31" y2="-366.85" gradientTransform="matrix(-0.86, -0.51, -0.51, 0.86, 1790.2, 1481.95)" gradientUnits="userSpaceOnUse"><stop offset="0" stop-color="#db2c3d"/><stop offset="0.25" stop-color="#e23d37"/><stop offset="0.75" stop-color="#f46828"/><stop offset="1" stop-color="#ff811f"/></linearGradient><linearGradient id="linear-gradient-3" x1="2096.99" y1="-48.87" x2="2121.22" y2="-48.87" gradientTransform="matrix(-0.98, -0.2, -0.2, 0.98, 2136.4, 588.97)" gradientUnits="userSpaceOnUse"><stop offset="0" stop-color="#005117"/><stop offset="0.28" stop-color="#005c42"/><stop offset="0.89" stop-color="#0079ad"/><stop offset="1" stop-color="#007ec0"/></linearGradient><linearGradient id="linear-gradient-4" x1="2075.51" y1="-24.94" x2="2088.9" y2="-66.89" gradientTransform="matrix(-0.98, -0.2, -0.2, 0.98, 2136.4, 588.97)" gradientUnits="userSpaceOnUse"><stop offset="0" stop-color="#00c28d"/><stop offset="0.64" stop-color="#0098ad"/><stop offset="1" stop-color="#007ec0"/></linearGradient><linearGradient id="linear-gradient-5" x1="2103.47" y1="-100.29" x2="2100" y2="-29.6" gradientTransform="matrix(-0.98, -0.2, -0.2, 0.98, 2136.4, 588.97)" gradientUnits="userSpaceOnUse"><stop offset="0" stop-color="#00c28d"/><stop offset="0.43" stop-color="#2bbab4"/><stop offset="1" stop-color="#68aeed"/></linearGradient><linearGradient id="linear-gradient-6" x1="544.96" y1="-720.31" x2="564.39" y2="-760.44" gradientTransform="matrix(0.55, -0.83, 0.83, 0.55, 410.29, 910.84)" gradientUnits="userSpaceOnUse"><stop offset="0" stop-color="#ff6f1f"/><stop offset="0.22" stop-color="#ff801f"/><stop offset="0.64" stop-color="#ffab1f"/><stop offset="1" stop-color="#ffd41f"/></linearGradient></defs><title>logo1Asset 1</title><g class="cls-1"><g id="Layer_2" data-name="Layer 2"><g id="Capa_1" data-name="Capa 1"><path class="cls-2" d="M184.06,105.86v4.56H150.67V58h4.57v47.87Z"/><path class="cls-2" d="M189.41,98.68c0-6.58,6.52-11.73,14.09-11.73h7.95A1.54,1.54,0,0,0,213,85.19V83c0-3.78-3.92-7.11-9-7.11a9.65,9.65,0,0,0-7.76,3.53l-1.37,1.82-3.66-2.74,1.38-1.82a14.2,14.2,0,0,1,11.47-5.35c7.24,0,13.5,5.28,13.5,11.74V98.75c0,6.59-6.52,11.67-14.08,11.67S189.41,105.27,189.41,98.68Zm14-7c-5.22.07-9.59,3.2-9.59,7s4.37,7.11,9.59,7.11,9.59-3.32,9.59-7.11v-7.3a7,7,0,0,1-1.7.2Z"/><path class="cls-2" d="M226.26,95.42V71.36h4.56V95.42c0,5.81,4.31,10.44,9.52,10.44s9.52-4.63,9.52-10.44V71.36h4.57V95.42c0,8.29-6.39,15-14.09,15S226.26,103.71,226.26,95.42Z"/><path class="cls-2" d="M264.86,110.42v-24c0-8.21,6.26-15.06,14.09-15.06h.65v4.56H279c-5.22,0-9.52,4.63-9.52,10.44v24.06Z"/><path class="cls-2" d="M283.58,98.68c0-6.58,6.52-11.73,14.09-11.73h7.95a1.54,1.54,0,0,0,1.57-1.76V83c0-3.78-3.92-7.11-9-7.11a9.65,9.65,0,0,0-7.76,3.53l-1.37,1.82-3.66-2.74,1.38-1.82a14.2,14.2,0,0,1,11.47-5.35c7.24,0,13.5,5.28,13.5,11.74V98.75c0,6.59-6.52,11.67-14.08,11.67S283.58,105.27,283.58,98.68Zm14-7c-5.22.07-9.59,3.2-9.59,7s4.37,7.11,9.59,7.11,9.59-3.32,9.59-7.11v-7.3a7,7,0,0,1-1.7.2Z"/><path class="cls-3" d="M382.51,58v52.43h-4.57V71.55l-14.21,38.87h-4.37L345.21,71.55v38.87h-4.57V58h4.44l16.5,45.06L378,58Z"/><path class="cls-3" d="M391.18,98.68c0-6.58,6.52-11.73,14.09-11.73h8c.26,0,1.56-.07,1.56-1.76V83c0-3.78-3.91-7.11-9-7.11A9.65,9.65,0,0,0,398,79.45l-1.37,1.82L393,78.53l1.37-1.82a14.22,14.22,0,0,1,11.48-5.35c7.24,0,13.5,5.28,13.5,11.74V98.75c0,6.59-6.53,11.67-14.09,11.67S391.18,105.27,391.18,98.68Zm14-7c-5.21.07-9.58,3.2-9.58,7s4.37,7.11,9.58,7.11,9.59-3.32,9.59-7.11v-7.3a7,7,0,0,1-1.69.2Z"/><path class="cls-3" d="M426,91.45c0-10.7,7-20.09,16.43-20.09,7.37,0,12.52,4.17,12.52,9.78,0,6.07-5.93,10.5-14,10.5H432c-1.11,0-1.24,1.11-1.24,1.57,0,5.54,5.48,12.58,11.74,12.58,3.78,0,6.58-1.24,9.65-5.34l3.65,2.73c-3.19,4.31-6.78,7.24-13.37,7.24C432.59,110.42,426,101.42,426,91.45Zm4.89-4.37a6,6,0,0,1,1-.13h8.87c5.74,0,9.52-2.55,9.52-5.87,0-2.35-2.21-5.22-7.89-5.22C437,75.86,432.27,80.62,430.9,87.08Z"/><path class="cls-3" d="M460.51,103.25l3.58-2.8c2.81,3.71,4.44,5.34,10.83,5.34,5.74,0,9-2.67,9-6.84,0-4-4.31-5-9.39-6.33-7-1.76-12.85-4.17-12.85-10.89,0-6.33,4.76-10.37,12.26-10.37,4.5,0,8.87,1.5,13.11,7.17l-3.59,2.81c-3.65-4.76-6.65-5.48-9.78-5.48-4.57,0-7.3,2.41-7.3,5.87,0,4,4.3,5.15,9.39,6.46,6.78,1.69,12.78,4,12.78,10.62s-5.41,11.61-13.63,11.61C467.16,110.42,463.83,107.75,460.51,103.25Z"/><path class="cls-3" d="M510.2,105.86h.65v4.56h-.65c-7.76,0-14.09-6.91-14.09-15.13V58h4.57V72.21a10.1,10.1,0,0,1,2-.2h8.15v4.57H502.7c-2,0-2.09,1-2.09,1.5V95.36C500.68,101.23,505,105.86,510.2,105.86Z"/><path class="cls-3" d="M520.24,110.42v-24c0-8.21,6.26-15.06,14.09-15.06H535v4.56h-.65c-5.22,0-9.52,4.63-9.52,10.44v24.06Z"/><path class="cls-3" d="M538.89,91.45c0-10.7,7-20.09,16.44-20.09,7.37,0,12.52,4.17,12.52,9.78,0,6.07-5.94,10.5-14,10.5h-8.94c-1.11,0-1.24,1.11-1.24,1.57,0,5.54,5.48,12.58,11.74,12.58,3.78,0,6.59-1.24,9.65-5.34l3.66,2.73c-3.2,4.31-6.79,7.24-13.37,7.24C545.48,110.42,538.89,101.42,538.89,91.45Zm4.89-4.37a5.94,5.94,0,0,1,1.05-.13h8.87c5.74,0,9.52-2.55,9.52-5.87,0-2.35-2.22-5.22-7.89-5.22C549.85,75.86,545.15,80.62,543.78,87.08Z"/><path class="cls-4" d="M180.06,124.06h-4.87v-1.75h12.23v1.75h-4.87v14.53h-2.49Z"/><path class="cls-4" d="M186.89,132.42c0-4.14,2.12-6.78,6.05-6.78,3.25,0,4.69,2.28,4.69,5.31a8.18,8.18,0,0,1-.09,1.28l-.06.06h-8.12c0,3.43,1,4.85,3.67,4.85a5.24,5.24,0,0,0,3.23-1.1l.83,1.48a7.74,7.74,0,0,1-4.4,1.32C188.71,138.84,186.89,136.07,186.89,132.42Zm8.32-1.49c0-.31,0-.58,0-.8,0-2-.78-2.92-2.53-2.92-2.15,0-3.06,1.54-3.34,3.9Z"/><path class="cls-4" d="M201.17,125.94l2.19-.14.2.21-.23,2h.07a5.94,5.94,0,0,1,4.67-2.4l-.24,2.1a3.27,3.27,0,0,0-.68-.07,4.2,4.2,0,0,0-3.54,1.71v9.2h-2.44Z"/><path class="cls-4" d="M209.66,135.49c0-3.83,3.52-4.56,7.66-4.56v-.81c0-1.51-.07-2.77-2.79-2.77a7,7,0,0,0-3.44.93l-.71-1.56a10.44,10.44,0,0,1,4.77-1.08c3.48,0,4.61,1.16,4.61,4.91v8l-2.13.15-.21-.22.18-1.87-.07,0a6.9,6.9,0,0,1-4.61,2.27A3.15,3.15,0,0,1,209.66,135.49Zm7.66-.26v-2.86c-4.33,0-5.5.74-5.5,2.61,0,1.44.8,2.13,1.86,2.13A5,5,0,0,0,217.32,135.23Z"/><path class="cls-4" d="M224.11,144.15V125.94l2.18-.15.23.23-.26,1.7h.06a5.9,5.9,0,0,1,4.38-2.08c2.88,0,4.52,2.41,4.52,6.26,0,4.3-2.4,6.95-6.63,6.95a8.27,8.27,0,0,1-2-.24v5.6l-2.23.15Zm8.65-12c0-3.27-.92-4.84-2.93-4.84a4.57,4.57,0,0,0-3.28,1.86v7.65a7.22,7.22,0,0,0,2.24.33C231,137.19,232.76,135.7,232.76,132.19Z"/><path class="cls-4" d="M237.61,132.42c0-4.14,2.11-6.78,6-6.78,3.25,0,4.69,2.28,4.69,5.31a10.16,10.16,0,0,1-.08,1.28l-.06.06h-8.12c0,3.43,1,4.85,3.67,4.85A5.21,5.21,0,0,0,247,136l.83,1.48a7.69,7.69,0,0,1-4.4,1.32C239.42,138.84,237.61,136.07,237.61,132.42Zm8.31-1.49c0-.31,0-.58,0-.8,0-2-.78-2.92-2.53-2.92-2.15,0-3.06,1.54-3.33,3.9Z"/><path class="cls-4" d="M251.77,135v-9.06l2.2-.14.23.21v7.73c0,1.38.07,3.19,2.09,3.19a4.56,4.56,0,0,0,3.51-1.85v-9.14l2.22-.14.21.21,0,12.53-2.22.13-.22-.2.28-1.9H260a7.11,7.11,0,0,1-4.79,2.27C252.93,138.84,251.77,137.56,251.77,135Z"/><path class="cls-4" d="M267.26,133.83v-6.45H265v-1.49h2.26v-4l2.22-.13.21.2v3.88h3.81l-.16,1.49h-3.65v6.45c0,1.81,0,3.22,1.63,3.22a4,4,0,0,0,1.9-.48l.67,1.58a7,7,0,0,1-3,.67C267.75,138.82,267.26,136.44,267.26,133.83Z"/><path class="cls-4" d="M275.94,135.49c0-3.83,3.53-4.56,7.67-4.56v-.81c0-1.51-.07-2.77-2.8-2.77a7.12,7.12,0,0,0-3.44.93l-.71-1.56a10.49,10.49,0,0,1,4.78-1.08c3.48,0,4.6,1.16,4.6,4.91v8l-2.12.15-.22-.22.18-1.87-.07,0a6.85,6.85,0,0,1-4.6,2.27A3.15,3.15,0,0,1,275.94,135.49Zm7.67-.26v-2.86c-4.33,0-5.51.74-5.51,2.61,0,1.44.81,2.13,1.86,2.13A5.06,5.06,0,0,0,283.61,135.23Z"/><path class="cls-4" d="M295.08,132.34c0-4.3,2.08-6.63,5.7-6.63,3.07,0,4.44,2,4.44,5.08a11.74,11.74,0,0,1-.06,1.26l-.05,0h-8.18c0,4,1.29,5.44,4,5.44a5.54,5.54,0,0,0,3.17-1l.61,1.09a7.22,7.22,0,0,1-4.06,1.2C297,138.82,295.08,136.29,295.08,132.34Zm8.32-1.27c0-.36,0-.65,0-.89,0-2.29-.94-3.3-2.83-3.3-2.28,0-3.38,1.53-3.66,4.33Z"/><path class="cls-4" d="M309.12,126l1.66-.09.16.13-.21,2h.06a6.74,6.74,0,0,1,4.75-2.31c2.14,0,3.38,1.33,3.38,3.84v9h-1.81v-8.1c0-1.34-.08-3.38-2.41-3.38a4.91,4.91,0,0,0-3.76,2.09v9.39h-1.82Z"/><path class="cls-4" d="M329.14,138.59V122.31c1.7,0,3.38-.09,4.5-.09,3.63,0,6.21.66,6.21,3.88a3.61,3.61,0,0,1-3.21,3.66v.12c2.22.16,4,1.14,4,3.84,0,3.45-2.56,4.93-7.2,4.93C332.15,138.65,330.65,138.6,329.14,138.59Zm8.18-12.21c0-2.16-1.46-2.51-3.65-2.51-.69,0-1.57,0-2.05.09v5.19c.53,0,1.25,0,2,0C336.28,129.17,337.32,128.05,337.32,126.38Zm.84,7.52c0-1.88-1.08-3.13-4.64-3.14h-1.9v6.16c.7,0,1.62,0,2.27,0C335.8,137,338.16,136.7,338.16,133.9Z"/><path class="cls-4" d="M344.14,122.2a1.48,1.48,0,1,1,1.46,1.4A1.44,1.44,0,0,1,344.14,122.2Zm.32,3.74,2.21-.15.23.21v12.59h-2.44Z"/><path class="cls-4" d="M350.33,132.47c0-3.46,2.11-6.83,6.34-6.83,3.63,0,5.93,3.1,5.94,6.4,0,3.48-2.18,6.8-6.35,6.8C352.7,138.84,350.33,136,350.33,132.47Zm9.85-.1c0-2.62-1.24-5.09-3.84-5.09-2,0-3.57,2.17-3.57,4.81s1.2,5,3.84,5C358.79,137.13,360.18,134.78,360.18,132.37Z"/><path class="cls-4" d="M366.06,125.94l2.19-.14.2.21-.23,2h.07a5.93,5.93,0,0,1,4.67-2.4l-.24,2.1a3.27,3.27,0,0,0-.68-.07,4.2,4.2,0,0,0-3.54,1.71v9.2h-2.44Z"/><path class="cls-4" d="M374.34,132.42c0-4.14,2.11-6.78,6.05-6.78,3.25,0,4.69,2.28,4.69,5.31a8.18,8.18,0,0,1-.09,1.28l-.06.06h-8.11c0,3.43,1,4.85,3.66,4.85a5.24,5.24,0,0,0,3.23-1.1l.83,1.48a7.74,7.74,0,0,1-4.4,1.32C376.15,138.84,374.34,136.07,374.34,132.42Zm8.32-1.49c0-.31,0-.58,0-.8,0-2-.78-2.92-2.53-2.92-2.15,0-3.06,1.54-3.34,3.9Z"/><path class="cls-4" d="M388.31,144.15V125.94l2.18-.15.23.23-.25,1.7h.06a5.88,5.88,0,0,1,4.38-2.08c2.88,0,4.52,2.41,4.52,6.26,0,4.3-2.4,6.95-6.63,6.95a8.27,8.27,0,0,1-2-.24v5.6l-2.23.15Zm8.66-12c0-3.27-.92-4.84-2.94-4.84a4.53,4.53,0,0,0-3.27,1.86v7.65a7.17,7.17,0,0,0,2.24.33C395.16,137.19,397,135.7,397,132.19Z"/><path class="cls-4" d="M402.88,125.94l2.18-.14.21.21-.23,2h.07a5.91,5.91,0,0,1,4.67-2.4l-.24,2.1a3.3,3.3,0,0,0-.69-.07,4.21,4.21,0,0,0-3.54,1.71v9.2h-2.43Z"/><path class="cls-4" d="M411.21,132.47c0-3.46,2.11-6.83,6.33-6.83,3.63,0,5.94,3.1,5.95,6.4,0,3.48-2.18,6.8-6.36,6.8C413.57,138.84,411.21,136,411.21,132.47Zm9.85-.1c0-2.62-1.24-5.09-3.84-5.09-2,0-3.58,2.17-3.58,4.81s1.2,5,3.84,5C419.66,137.13,421.06,134.78,421.06,132.37Z"/><path class="cls-4" d="M426.69,143.35l.68-1.58a6.32,6.32,0,0,0,3.61,1c2.23,0,3.65-1.23,3.65-4.45l.27-1.83h-.07a5.92,5.92,0,0,1-4.36,2.07c-2.87,0-4.55-2.29-4.55-6.1,0-4.21,2.49-6.87,6.67-6.87a21.53,21.53,0,0,1,4.47.56v12c0,3.49-1.5,6.32-5.66,6.32A8.49,8.49,0,0,1,426.69,143.35Zm7.94-8.27,0-7.46a7.86,7.86,0,0,0-2.22-.33c-2.27,0-4,1.62-4,5,0,3.12,1,4.58,2.92,4.58A4.72,4.72,0,0,0,434.63,135.08Z"/><path class="cls-4" d="M441.53,125.94l2.18-.14.21.21-.23,2h.07a5.93,5.93,0,0,1,4.67-2.4l-.24,2.1a3.3,3.3,0,0,0-.69-.07,4.18,4.18,0,0,0-3.53,1.71v9.2h-2.44Z"/><path class="cls-4" d="M450,135.49c0-3.83,3.52-4.56,7.66-4.56v-.81c0-1.51-.07-2.77-2.79-2.77a7.13,7.13,0,0,0-3.45.93l-.71-1.56a10.49,10.49,0,0,1,4.78-1.08c3.48,0,4.6,1.16,4.6,4.91v8l-2.12.15-.21-.22.18-1.87-.08,0a6.85,6.85,0,0,1-4.6,2.27A3.15,3.15,0,0,1,450,135.49Zm7.66-.26v-2.86c-4.33,0-5.51.74-5.51,2.61,0,1.44.81,2.13,1.86,2.13A5,5,0,0,0,457.68,135.23Z"/><path class="cls-4" d="M464.46,125.94l2.21-.14.23.21-.27,1.89h.06a6.84,6.84,0,0,1,4.68-2.26,2.88,2.88,0,0,1,3.13,2.25h.05a6.73,6.73,0,0,1,4.64-2.25c2.76,0,3.35,1.91,3.35,4.67v8.28H480.1v-7.87c0-1.47-.12-3.21-2-3.21a4.32,4.32,0,0,0-3.36,1.86v9.22h-2.44v-7.87c0-1.44-.12-3.21-2-3.21a4.36,4.36,0,0,0-3.36,1.87v9.21h-2.44Z"/><path class="cls-4" d="M486,135.49c0-3.83,3.53-4.56,7.66-4.56v-.81c0-1.51-.07-2.77-2.79-2.77a7.08,7.08,0,0,0-3.44.93l-.71-1.56a10.48,10.48,0,0,1,4.77-1.08c3.48,0,4.61,1.16,4.61,4.91v8l-2.12.15-.22-.22.18-1.87-.07,0a6.88,6.88,0,0,1-4.61,2.27A3.15,3.15,0,0,1,486,135.49Zm7.66-.26v-2.86c-4.32,0-5.5.74-5.5,2.61,0,1.44.8,2.13,1.86,2.13A5,5,0,0,0,493.65,135.23Z"/><path class="cls-4" d="M499.37,132.33c0-3.48,2.27-6.69,6.56-6.69a5.77,5.77,0,0,1,3.05.8L508,128a4.26,4.26,0,0,0-2.34-.69c-2.16,0-3.85,2-3.83,4.67,0,2.93.84,5.15,3.94,5.15a3.52,3.52,0,0,0,2.29-.89l.91,1.56a5.87,5.87,0,0,1-3.55,1.07C501.39,138.84,499.37,135.82,499.37,132.33Z"/><path class="cls-4" d="M511.83,122.2a1.48,1.48,0,1,1,1.46,1.4A1.44,1.44,0,0,1,511.83,122.2Zm.32,3.74,2.21-.15.23.21v12.59h-2.44Z"/><path class="cls-4" d="M518,132.47c0-3.46,2.11-6.83,6.33-6.83,3.63,0,5.94,3.1,5.95,6.4,0,3.48-2.18,6.8-6.36,6.8C520.38,138.84,518,136,518,132.47Zm9.85-.1c0-2.62-1.24-5.09-3.84-5.09-2,0-3.58,2.17-3.58,4.81s1.2,5,3.84,5C526.47,137.13,527.87,134.78,527.87,132.37Zm-4.32-8.17,2-3.67,2.28,0-3.14,3.92Z"/><path class="cls-4" d="M533.75,125.94l2.21-.14.23.21-.28,1.89H536a7.18,7.18,0,0,1,4.81-2.26c2.21,0,3.38,1.29,3.38,3.82v9.13h-2.43v-7.92c0-1.39-.09-3.16-2.08-3.16a4.58,4.58,0,0,0-3.47,1.87v9.21h-2.44Z"/><path class="cls-5" d="M53.38,166.93c-.36.6-.83,1.39-1.17,2a15.46,15.46,0,0,0,2.89-2.64,34.18,34.18,0,0,0,3.18-4.11,35.39,35.39,0,0,0,2.93-5.29,36.14,36.14,0,0,0,3.14-17.45,40.66,40.66,0,0,0-1.5-8.07,34.67,34.67,0,0,0-2.28-5.74,35.26,35.26,0,0,0-3.13-5.15,35.67,35.67,0,0,0-3.9-4.51,35.19,35.19,0,0,0-4.57-3.8,37.21,37.21,0,0,0-5.19-3l-1.35-.61a30.39,30.39,0,0,0-17.76-.63c5.39,2.47,11.84,1,16.9,4.65,4.41,3.15,6.12,8.4,9.62,12.25,2.38,2.62,6.42,4,8.27,7C65.32,141.24,58.51,158.43,53.38,166.93Z"/><path class="cls-6" d="M61.45,147.42c-3.51,14.4-18.34,24.89-20,26,2-3.08,2.16-5,1.83-9.84-.43-6.27-.26-13.51,7.2-20-7.71-1-15.75,4-23.25-1.2a22,22,0,0,1-3.29-2.81c-3.5-3.69-2.38-9.44-5.88-13.13-2.66-2.8-7.51-.34-9.78-4.08-.15-.24-1.3-2.45,3.27-5.75a27.59,27.59,0,0,1,6.27-3.17c28.31-8.49,48.93,12.23,43.65,33.9Z"/><path class="cls-7" d="M63,76.61a7.61,7.61,0,0,0-.69-1.88c-2.3-4.15-1.16-10.09.73-19.93,2.1-11,2.61-13.58-3.57-21.61-2.1-2.73-4.72-6.14-4.53-9.26.27-4.56,7.38-3.66,11.2.4a14.31,14.31,0,0,1,2.77,4.36c.56,1.62,1.3,3.79,1.77,5.44a48.3,48.3,0,0,1,1.44,7.76,53,53,0,0,1,.22,8,48.57,48.57,0,0,1-1.06,8,63,63,0,0,1-2.41,8c-.88,2-2.12,4.68-3.15,6.63-.83,1.35-1.93,3.15-2.83,4.46l.11-.36Z"/><path class="cls-8" d="M27.75,98.33C42.59,96.27,53.07,88,58,83.25l-2.2,2.13a54.72,54.72,0,0,1-6.24,4.85,51.23,51.23,0,0,1-6.87,3.82,52.27,52.27,0,0,1-7.36,2.73,47.83,47.83,0,0,1-7.74,1.57l-1.7.18c.55-.06,1.3-.12,1.86-.2Z"/><g class="cls-9"><path class="cls-10" d="M0,73.92c.05,4.8.1,9.77,23.79,6.91,6.2-.75,20.74-2.51,31.42-13.59.62-.65,1.39-1.57,2-2.24C51.32,87.27,29.57,98.51,17.1,98.5a47.66,47.66,0,0,0,8.79,0l1.7-.18a52,52,0,0,0,7.74-1.57,50.37,50.37,0,0,0,7.36-2.73c18-9.14,28.27-23.51,29.74-43.88a50.53,50.53,0,0,0-1.65-15.73C70.28,32.8,69.6,30.6,69,29c2.29,7.13.17,13.26-5.78,25.16C72.07,21.67,40.4.19,40.07,0a4.27,4.27,0,0,0-.5.54c-1.59,2.35.86,5.37-1.28,7.63-3.13,3.31-7.68,5.1-10,9.28-.92,1.64-1.16,2.09-1.31,6.05-.4,10.7,7.53,17.92,11.22,26.91C15.16,38-.11,62.87,0,73.92Z"/></g><path class="cls-11" d="M74.85,128.64c2.4,11.83,6.72,17,10.94,21.34-1.45-1.48-3.33-3.5-4.68-5.07a50,50,0,0,1-4.55-6.67,51.54,51.54,0,0,1-5.7-14.94,51.11,51.11,0,0,1-.77-16.22c.37-2.39,1-5.57,1.54-7.92,1.71-5.34,1.71-5.34,2.89-7.91A51.06,51.06,0,0,1,83.6,77.79l2.09-2.1C74.4,86.62,71.31,111.2,74.85,128.64Z"/><path class="cls-12" d="M111.07,148.64C105.16,155.05,74.35,134,73.86,108c-.5-26.84,25.57-46.14,59.37-43.94-13,4.38-13.07,7.44-13.12,9.67-.32,13.21-.4,16.77-19.48,26.53-5.78,3-6.91,3.82-9.64,5.89,24.88,3.2,25.43,36.6,20.08,42.5Z"/><g class="cls-13"><path class="cls-14" d="M87.71,151.69a39.27,39.27,0,0,0,7.67,5c-9.3-7.83-16.65-14-24.87-39.71-1.68-5.24,7.22-2.92,10.61-4.85a17.9,17.9,0,0,0,3.28-2.59C90.71,103.21,90,93.06,96.67,87c5.23-4.77,14.12-1.89,18.34-8.77.72-1.19.09-5.22-8.37-7.7-10.61-2-16.34,1.33-21,5.21l-2.09,2.1a48.34,48.34,0,0,0-5,6.31,49,49,0,0,0-4,7.15,48.36,48.36,0,0,0-2.89,7.91c-.55,2.35-1.18,5.52-1.54,7.92-.4,5.44-.4,5.44-.26,8.21a51.27,51.27,0,0,0,6.73,23,50.71,50.71,0,0,0,4.55,6.67c1.35,1.56,3.22,3.6,4.68,5.07.57.51,1.33,1.22,1.92,1.71Z"/></g><path class="cls-8" d="M111.8,53.52h1.43a9,9,0,0,1-2.32.69,20.68,20.68,0,0,1-3.19.38,23.1,23.1,0,0,1-3.75-.13,22,22,0,0,1-3.61-.73,22.66,22.66,0,0,1-3.44-1.31,21.77,21.77,0,0,1-3.21-1.88,24.91,24.91,0,0,1-3.81-3.37,21.57,21.57,0,0,1-2.31-3,22.54,22.54,0,0,1-2.88-6.82,21.32,21.32,0,0,1-.56-3.64,22,22,0,0,1,0-3.73l.1-.91a18.87,18.87,0,0,1,5.35-9.63C89.23,23.06,86.4,26,86.7,29.87c.27,3.34,2.5,5.93,3.43,9,.64,2.1.09,4.69,1.08,6.63C94.35,51.64,105.65,53.52,111.8,53.52Z"/><path class="cls-15" d="M98.87,51.56c8.77,2.74,19.07-1.77,20.22-2.3-2.27.05-3.33-.44-5.81-2.17-3.19-2.23-7.09-4.46-12.9-2.56,1.93-4.42,7.16-7.08,6.8-12.72a14.1,14.1,0,0,0-.44-2.65c-.84-3-4.25-4.27-5.09-7.31-.64-2.31,2.21-4.1,1-6.49-.08-.16-.89-1.48-4.1-.11a16.82,16.82,0,0,0-3.69,2.32c-13.55,12.31-9.14,29.87,4.05,34Z"/></g></g></g></svg>