<svg xmlns="http://www.w3.org/2000/svg" viewBox="0 0 34.99 39.98"><defs><linearGradient id="a" x1="460.87" y1="-734.95" x2="480.29" y2="-775.07" gradientTransform="matrix(.55 -.83 .83 .55 384.98 834.3)" gradientUnits="userSpaceOnUse"><stop offset="0" stop-color="#ff6f1f"/><stop offset=".22" stop-color="#ff801f"/><stop offset=".64" stop-color="#ffab1f"/><stop offset="1" stop-color="#ffd41f"/></linearGradient></defs><g data-name="Layer 2"><g data-name="Capa 1"><path d="M27.71 38.88h1.43a10.13 10.13 0 0 1-2.32.69 22.14 22.14 0 0 1-3.2.38 22.79 22.79 0 0 1-3.74-.14 22.41 22.41 0 0 1-3.62-.73 21 21 0 0 1-3.44-1.31 21.06 21.06 0 0 1-3.21-1.87 24.93 24.93 0 0 1-3.8-3.37 21.8 21.8 0 0 1-2.32-3 21.28 21.28 0 0 1-1.73-3.31 22.89 22.89 0 0 1-1.15-3.54A22.24 22.24 0 0 1 .05 19a23.09 23.09 0 0 1 0-3.73l.15-.87a18.7 18.7 0 0 1 5.34-9.62c-.41 3.64-3.23 6.61-2.93 10.45.26 3.35 2.5 5.93 3.43 9 .63 2.1.09 4.69 1.08 6.63 3.14 6.14 14.44 8.03 20.59 8.02z" fill="#db2c3d"/><path d="M14.77 36.93c8.77 2.74 19.08-1.78 20.22-2.3-2.26 0-3.33-.44-5.81-2.18C26 30.22 22.1 28 16.29 29.9c1.93-4.42 7.16-7.08 6.79-12.73a13.86 13.86 0 0 0-.44-2.64c-.84-3-4.25-4.28-5.09-7.31-.63-2.31 2.22-4.1 1-6.5-.08-.15-.88-1.48-4.1-.1a17.33 17.33 0 0 0-3.68 2.31c-13.55 12.32-9.14 29.88 4 34z" style="mix-blend-mode:overlay" fill="url(#a)"/></g></g></svg>