<svg xmlns="http://www.w3.org/2000/svg" viewBox="0 0 72.61 98.88"><defs><style>.cls-4{fill:#db2c3d}.cls-8{fill:#dc2e3c}.cls-11{fill:#dd313b}.cls-15{fill:#df353a}.cls-25{fill:#e33f36}.cls-85{fill:#ff811f}</style><clipPath id="clip-path"><path d="M.11 73.92c.05 4.8.1 9.77 23.78 6.91 6.21-.75 20.74-2.51 31.42-13.59.63-.65 1.4-1.57 2-2.24-5.89 22.27-27.64 33.51-40.11 33.5a47.76 47.76 0 0 0 8.8 0l1.7-.18a51.06 51.06 0 0 0 15.1-4.3c18-9.14 28.27-23.51 29.74-43.88a46.88 46.88 0 0 0-.22-8 48.59 48.59 0 0 0-1.43-7.76c-.51-1.64-1.18-3.84-1.78-5.45 2.28 7.14.16 13.26-5.79 25.16C72.17 21.67 40.51.19 40.18 0a5.24 5.24 0 0 0-.51.54c-1.58 2.35.86 5.37-1.27 7.63-3.14 3.31-7.68 5.1-10 9.28-.91 1.64-1.16 2.09-1.3 6.05-.4 10.7 7.53 17.92 11.21 26.91C15.27 38 0 62.87.11 73.92z" fill="none"/></clipPath></defs><g style="isolation:isolate"><g id="Layer_2" data-name="Layer 2"><g id="Capa_1" data-name="Capa 1"><path d="M63.13 76.61a7.61 7.61 0 0 0-.69-1.88c-2.31-4.15-1.16-10.09.73-19.93 2.1-11 2.6-13.58-3.58-21.61-2.1-2.73-4.71-6.14-4.52-9.26.27-4.56 7.37-3.66 11.19.4A14.12 14.12 0 0 1 69 28.69c.57 1.62 1.31 3.79 1.78 5.44a49.5 49.5 0 0 1 1.44 7.76 54 54 0 0 1 .21 8c-.43 4.71-.54 6-1.06 8a64.79 64.79 0 0 1-2.4 8c-.88 2-2.12 4.68-3.15 6.63C65 73.86 63.92 75.66 63 77l.12-.36z" fill="#922c3d"/><path class="cls-4" d="M27.85 98.33C42.7 96.27 53.18 88 58.11 83.25l-2.21 2.13a53.92 53.92 0 0 1-6.23 4.85 51.23 51.23 0 0 1-6.87 3.82 51.8 51.8 0 0 1-7.37 2.73 47.57 47.57 0 0 1-7.73 1.57l-1.7.18c.55-.06 1.3-.12 1.85-.2z"/><g clip-path="url(#clip-path)"><path class="cls-4" d="M0 88.07l10.05 10.81H0V88.07z"/><path class="cls-4" d="M0 86.58l11.44 12.3h-1.39L0 88.07v-1.49z"/><path class="cls-4" d="M0 85.09l12.83 13.79h-1.39L0 86.58v-1.49z"/><path fill="#db2d3d" d="M0 83.59l14.21 15.29h-1.38L0 85.09v-1.5z"/><path class="cls-8" d="M0 82.1l15.6 16.78h-1.39L0 83.59V82.1z"/><path class="cls-8" d="M0 80.61l16.99 18.27H15.6L0 82.1v-1.49z"/><path fill="#dc2f3c" d="M0 79.12l18.38 19.76h-1.39L0 80.61v-1.49z"/><path fill="#dd303c" d="M0 77.63l19.76 21.25h-1.38L0 79.12v-1.49z"/><path class="cls-11" d="M0 76.13l21.15 22.75h-1.39L0 77.63v-1.5z"/><path class="cls-11" d="M0 74.64l22.54 24.24h-1.39L0 76.13v-1.49z"/><path fill="#de323b" d="M0 73.15l23.93 25.73h-1.39L0 74.64v-1.49z"/><path fill="#de333b" d="M0 71.66l25.31 27.22h-1.38L0 73.15v-1.49z"/><path fill="#de343a" d="M0 70.17l26.7 28.71h-1.39L0 71.66v-1.49z"/><path class="cls-15" d="M0 68.67l28.09 30.21H26.7L0 70.17v-1.5z"/><path class="cls-15" d="M0 67.18l29.48 31.7h-1.39L0 68.67v-1.49z"/><path fill="#df3639" d="M0 65.69l30.86 33.19h-1.38L0 67.18v-1.49z"/><path fill="#e03739" d="M0 64.2l32.25 34.68h-1.39L0 65.69V64.2z"/><path fill="#e03839" d="M0 62.7l33.64 36.18h-1.39L0 64.2v-1.5z"/><path fill="#e03938" d="M0 61.21l35.02 37.67h-1.38L0 62.7v-1.49z"/><path fill="#e13a38" d="M0 59.72l36.41 39.16h-1.39L0 61.21v-1.49z"/><path fill="#e13b38" d="M0 58.23l37.8 40.65h-1.39L0 59.72v-1.49z"/><path fill="#e23c37" d="M0 56.73l39.19 42.15H37.8L0 58.23v-1.5z"/><path fill="#e23d37" d="M0 55.24l40.57 43.64h-1.38L0 56.73v-1.49z"/><path fill="#e23e37" d="M0 53.75l41.96 45.13h-1.39L0 55.24v-1.49z"/><path class="cls-25" d="M0 52.26l43.35 46.62h-1.39L0 53.75v-1.49z"/><path class="cls-25" d="M0 50.77l44.74 48.11h-1.39L0 52.26v-1.49z"/><path fill="#e44036" d="M0 49.27l46.12 49.61h-1.38L0 50.77v-1.5z"/><path fill="#e44135" d="M0 47.78l47.51 51.1h-1.39L0 49.27v-1.49z"/><path fill="#e44235" d="M0 46.29L48.82 98.8l-.09.08h-1.22L0 47.78v-1.49z"/><path fill="#e54335" d="M0 44.8l49.57 53.31-.75.69L0 46.29V44.8z"/><path fill="#e54434" d="M0 43.3l50.31 54.12-.74.69L0 44.8v-1.5z"/><path fill="#e64534" d="M0 41.81l51.05 54.91-.74.7L0 43.3v-1.49z"/><path fill="#e64634" d="M0 40.32l51.8 55.71-.75.69L0 41.81v-1.49z"/><path fill="#e74733" d="M0 38.83l52.54 56.51-.74.69L0 40.32v-1.49z"/><path fill="#e74833" d="M0 37.34l53.29 57.31-.75.69L0 38.83v-1.49z"/><path fill="#e74933" d="M0 35.84l54.03 58.12-.74.69L0 37.34v-1.5z"/><path fill="#e84a32" d="M0 34.63l.14-.13 54.63 58.77-.74.69L0 35.84v-1.21z"/><path transform="rotate(-42.91 27.833 63.534)" fill="#e84b32" d="M27.32 23.41h1.02v80.24h-1.02z"/><path transform="rotate(-42.91 28.575 62.842)" fill="#e94c32" d="M28.06 22.72h1.02v80.24h-1.02z"/><path transform="rotate(-42.91 29.33 62.155)" fill="#e94d31" d="M28.81 22.03h1.02v80.24h-1.02z"/><path transform="rotate(-42.91 30.072 61.462)" fill="#ea4e31" d="M29.55 21.34h1.02v80.24h-1.02z"/><path transform="rotate(-42.91 30.814 60.77)" fill="#ea4f30" d="M30.3 20.65h1.02v80.24H30.3z"/><path transform="rotate(-42.91 31.556 60.077)" fill="#ea5130" d="M31.04 19.96h1.02v80.24h-1.02z"/><path transform="rotate(-42.91 32.298 59.385)" fill="#eb5230" d="M31.79 19.26h1.02V99.5h-1.02z"/><path transform="rotate(-42.91 33.04 58.693)" fill="#eb532f" d="M32.53 18.57h1.02v80.24h-1.02z"/><path transform="rotate(-42.91 33.795 58.005)" fill="#ec542f" d="M33.27 17.88h1.02v80.24h-1.02z"/><path transform="rotate(-42.91 34.537 57.313)" fill="#ec552f" d="M34.02 17.19h1.02v80.24h-1.02z"/><path transform="rotate(-42.91 35.28 56.62)" fill="#ed562e" d="M34.76 16.5h1.02v80.24h-1.02z"/><path transform="rotate(-42.91 36.021 55.928)" fill="#ed572e" d="M35.51 15.8h1.02v80.24h-1.02z"/><path transform="rotate(-42.91 36.763 55.235)" fill="#ee582d" d="M36.25 15.11h1.02v80.24h-1.02z"/><path transform="rotate(-42.91 37.506 54.543)" fill="#ee592d" d="M36.99 14.42h1.02v80.24h-1.02z"/><path transform="rotate(-42.91 38.248 53.85)" fill="#ef5a2d" d="M37.74 13.73h1.02v80.24h-1.02z"/><path transform="rotate(-42.91 39.002 53.163)" fill="#ef5b2c" d="M38.48 13.04h1.02v80.24h-1.02z"/><path transform="rotate(-42.91 39.745 52.47)" fill="#ef5c2c" d="M39.23 12.34h1.02v80.24h-1.02z"/><path transform="rotate(-42.91 40.487 51.778)" fill="#f05d2c" d="M39.97 11.65h1.02v80.24h-1.02z"/><path transform="rotate(-42.91 41.229 51.086)" fill="#f05f2b" d="M40.72 10.96h1.02V91.2h-1.02z"/><path transform="rotate(-42.91 41.971 50.394)" fill="#f1602b" d="M41.46 10.27h1.02v80.24h-1.02z"/><path transform="rotate(-42.91 42.713 49.701)" fill="#f1612a" d="M42.2 9.58h1.02v80.24H42.2z"/><path transform="rotate(-42.91 43.468 49.014)" fill="#f2622a" d="M42.95 8.89h1.02v80.24h-1.02z"/><path transform="rotate(-42.91 44.21 48.321)" fill="#f2632a" d="M43.69 8.19h1.02v80.24h-1.02z"/><path fill="#f36429" d="M17.25 18.59l.75-.7 54.61 58.74v.06l-.72.66-54.64-58.76z"/><path fill="#f36529" d="M18 17.89l.74-.69 53.87 57.94v1.49L18 17.89z"/><path fill="#f46628" d="M18.74 17.2l.74-.69 53.13 57.14v1.49L18.74 17.2z"/><path fill="#f46728" d="M19.48 16.51l.75-.69 52.38 56.33v1.5L19.48 16.51z"/><path fill="#f56928" d="M20.23 15.82l.74-.69 51.64 55.53v1.49L20.23 15.82z"/><path fill="#f56a27" d="M20.97 15.13l.75-.7 50.89 54.74v1.49L20.97 15.13z"/><path fill="#f66b27" d="M21.72 14.43l.74-.69 50.15 53.94v1.49L21.72 14.43z"/><path fill="#f66c26" d="M22.46 13.74l.75-.69 49.4 53.14v1.49L22.46 13.74z"/><path fill="#f76d26" d="M23.21 13.05l.74-.69 48.66 52.33v1.5l-49.4-53.14z"/><path fill="#f76e26" d="M23.95 12.36l.74-.69L72.61 63.2v1.49L23.95 12.36z"/><path fill="#f86f25" d="M24.69 11.67l.75-.7 47.17 50.74v1.49L24.69 11.67z"/><path fill="#f87125" d="M25.44 10.97l.74-.69 46.43 49.94v1.49L25.44 10.97z"/><path fill="#f97224" d="M26.18 10.28l.75-.69 45.68 49.13v1.5L26.18 10.28z"/><path fill="#f97324" d="M26.93 9.59l.74-.69 44.94 48.33v1.49L26.93 9.59z"/><path fill="#fa7424" d="M27.67 8.9l.74-.69 44.2 47.53v1.49L27.67 8.9z"/><path fill="#fa7523" d="M28.41 8.21l.75-.69 43.45 46.73v1.49L28.41 8.21z"/><path fill="#fb7623" d="M29.16 7.52l.74-.7 42.71 45.94v1.49L29.16 7.52z"/><path fill="#fb7822" d="M29.9 6.82l.75-.69 41.96 45.13v1.5L29.9 6.82z"/><path fill="#fb7922" d="M30.65 6.13l.74-.69 41.22 44.33v1.49L30.65 6.13z"/><path fill="#fc7a22" d="M31.39 5.44l.75-.69 40.47 43.53v1.49L31.39 5.44z"/><path fill="#fc7b21" d="M32.14 4.75l.74-.69 39.73 42.73v1.49L32.14 4.75z"/><path fill="#fd7c21" d="M32.88 4.06l.74-.7 38.99 41.93v1.5L32.88 4.06z"/><path fill="#fd7d20" d="M33.62 3.36l.75-.69L72.61 43.8v1.49L33.62 3.36z"/><path fill="#fe7f20" d="M34.37 2.67l.74-.69 37.5 40.33v1.49L34.37 2.67z"/><path fill="#fe801f" d="M35.11 1.98l.75-.69 36.75 39.53v1.49L35.11 1.98z"/><path class="cls-85" d="M35.86 1.29L36.6.6l36.01 38.72v1.5L35.86 1.29z"/><path class="cls-85" d="M36.6.6l.64-.6h35.37v39.32L36.6.6z"/></g></g></g></g></svg>