<svg xmlns="http://www.w3.org/2000/svg" viewBox="0 0 59.77 68.43"><defs><style>.cls-3{fill:#93278f}.cls-6{fill:#d4145a}.cls-13{fill:#ce165f}</style><clipPath id="clip-path"><path d="M54.49 42.39c-3.51 14.4-18.34 24.89-20 26 2-3.08 2.16-5 1.83-9.84-.43-6.27-.26-13.51 7.21-20-7.72-1-15.75 4-23.26-1.19A22.68 22.68 0 0 1 17 34.62c-3.49-3.69-2.38-9.44-5.88-13.12-2.65-2.81-7.51-.35-9.78-4.09C1.16 17.17 0 15 4.58 11.66a27.29 27.29 0 0 1 6.26-3.16C39.16 0 59.77 20.72 54.49 42.39z" fill="none"/></clipPath></defs><g style="isolation:isolate"><g id="Layer_2" data-name="Layer 2"><g id="Capa_1" data-name="Capa 1"><path class="cls-3" d="M46.42 61.9c-.36.6-.83 1.39-1.17 2a15.46 15.46 0 0 0 2.89-2.64 35.12 35.12 0 0 0 3.18-4.1 36.12 36.12 0 0 0 2.94-5.3 35.31 35.31 0 0 0 2-5.61 35.95 35.95 0 0 0 1.14-11.84 40.66 40.66 0 0 0-1.5-8.07 35.06 35.06 0 0 0-2.28-5.74 35.26 35.26 0 0 0-3.13-5.15 34.67 34.67 0 0 0-3.9-4.5A34.63 34.63 0 0 0 42 7.14a37.21 37.21 0 0 0-5.19-3l-1.35-.61a30.35 30.35 0 0 0-17.75-.63c5.38 2.47 11.83 1 16.9 4.65 4.4 3.15 6.11 8.4 9.61 12.25 2.38 2.63 6.42 4 8.27 7 5.87 9.41-.94 26.61-6.07 35.1z"/><g clip-path="url(#clip-path)"><path class="cls-6" d="M48.91 68.43l10.86-5.88v5.88H48.91z"/><path class="cls-6" d="M46.58 68.43l13.19-7.14v1.26l-10.86 5.88h-2.33z"/><path class="cls-6" d="M44.25 68.43l15.52-8.4v1.26l-13.19 7.14h-2.33z"/><path fill="#d3145b" d="M41.93 68.43l17.84-9.65v1.25l-15.52 8.4h-2.32z"/><path fill="#d2155b" d="M39.6 68.43l20.17-10.91v1.26l-17.84 9.65H39.6z"/><path fill="#d2155c" d="M37.28 68.43l22.49-12.17v1.26L39.6 68.43h-2.32z"/><path fill="#d1155d" d="M34.95 68.43L59.77 55v1.26L37.28 68.43h-2.33z"/><path fill="#d0155d" d="M32.63 68.43l27.14-14.69V55L34.95 68.43h-2.32z"/><path fill="#cf155e" d="M30.3 68.43l29.47-15.95v1.26L32.63 68.43H30.3z"/><path class="cls-13" d="M27.98 68.43l31.79-17.21v1.26L30.3 68.43h-2.32z"/><path class="cls-13" d="M26.63 68.43l-.22-.41 33.36-18.05v1.25L27.98 68.43h-1.35z"/><path fill="#cd1660" d="M26.41 68.02l-.53-.97 33.89-18.34v1.26L26.41 68.02z"/><path fill="#cc1661" d="M25.88 67.05l-.53-.97 34.42-18.63v1.26L25.88 67.05z"/><path fill="#cb1761" d="M25.35 66.08l-.53-.98 34.95-18.91v1.26L25.35 66.08z"/><path fill="#ca1762" d="M24.82 65.1l-.52-.97 35.47-19.2v1.26L24.82 65.1z"/><path fill="#c91763" d="M24.3 64.13l-.53-.97 36-19.49v1.26L24.3 64.13z"/><path fill="#c81764" d="M23.77 63.16l-.53-.98 36.53-19.77v1.26l-36 19.49z"/><path fill="#c71864" d="M23.24 62.18l-.52-.97 37.05-20.06v1.26L23.24 62.18z"/><path fill="#c61865" d="M22.72 61.21l-.53-.98 37.58-20.34v1.26L22.72 61.21z"/><path fill="#c51866" d="M22.19 60.23l-.53-.97 38.11-20.63v1.26L22.19 60.23z"/><path fill="#c41967" d="M21.66 59.26l-.52-.97 38.63-20.91v1.25L21.66 59.26z"/><path fill="#c31967" d="M21.14 58.29l-.53-.98 39.16-21.19v1.26L21.14 58.29z"/><path fill="#c21968" d="M20.61 57.31l-.53-.97 39.69-21.48v1.26L20.61 57.31z"/><path fill="#c21969" d="M20.08 56.34l-.53-.97L59.77 33.6v1.26L20.08 56.34z"/><path fill="#c11a6a" d="M19.55 55.37l-.52-.98 40.74-22.05v1.26L19.55 55.37z"/><path fill="#c01a6b" d="M19.03 54.39l-.53-.97 41.27-22.34v1.26L19.03 54.39z"/><path fill="#bf1a6c" d="M18.5 53.42l-.53-.97 41.8-22.63v1.26L18.5 53.42z"/><path fill="#bd1b6c" d="M17.97 52.45l-.52-.98 42.32-22.91v1.26l-41.8 22.63z"/><path fill="#bc1b6d" d="M17.45 51.47l-.53-.97 42.85-23.2v1.26L17.45 51.47z"/><path fill="#bb1b6e" d="M16.92 50.5l-.53-.98 43.38-23.47v1.25L16.92 50.5z"/><path fill="#ba1b6f" d="M16.39 49.52l-.52-.97 43.9-23.76v1.26L16.39 49.52z"/><path fill="#b91c70" d="M15.87 48.55l-.53-.97 44.43-24.05v1.26l-43.9 23.76z"/><path fill="#b81c71" d="M15.34 47.58l-.53-.98 44.96-24.33v1.26L15.34 47.58z"/><path fill="#b71c71" d="M14.81 46.6l-.52-.97 45.48-24.62v1.26L14.81 46.6z"/><path fill="#b61d72" d="M14.29 45.63l-.53-.97 46.01-24.91v1.26L14.29 45.63z"/><path fill="#b51d73" d="M13.76 44.66l-.53-.98 46.54-25.19v1.26L13.76 44.66z"/><path fill="#b41d74" d="M13.23 43.68l-.53-.97 47.07-25.48v1.26L13.23 43.68z"/><path fill="#b31e75" d="M12.7 42.71l-.52-.97L59.54 16.1l.23.42v.71L12.7 42.71z"/><path transform="rotate(-28.43 35.586 28.423)" fill="#b21e76" d="M8.67 27.88h53.86v1.11H8.67z"/><path transform="rotate(-28.43 35.056 27.448)" fill="#b11e77" d="M8.14 26.9H62v1.11H8.14z"/><path transform="rotate(-28.43 34.546 26.479)" fill="#b01f78" d="M7.61 25.93h53.86v1.11H7.61z"/><path transform="rotate(-28.43 34.015 25.504)" fill="#af1f78" d="M7.09 24.96h53.86v1.11H7.09z"/><path transform="rotate(-28.43 33.485 24.53)" fill="#ae1f79" d="M6.56 23.98h53.86v1.11H6.56z"/><path transform="rotate(-28.43 32.955 23.555)" fill="#ac207a" d="M6.03 23.01h53.86v1.11H6.03z"/><path transform="rotate(-28.43 32.424 22.58)" fill="#ab207b" d="M5.5 22.04h53.86v1.11H5.5z"/><path transform="rotate(-28.43 31.894 21.606)" fill="#aa207c" d="M4.98 21.06h53.86v1.11H4.98z"/><path transform="rotate(-28.43 31.383 20.637)" fill="#a9217d" d="M4.45 20.09h53.86v1.11H4.45z"/><path transform="rotate(-28.43 30.853 19.662)" fill="#a8217e" d="M3.92 19.11h53.86v1.11H3.92z"/><path transform="rotate(-28.43 30.323 18.688)" fill="#a7217f" d="M3.4 18.14h53.86v1.11H3.4z"/><path transform="rotate(-28.43 29.793 17.713)" fill="#a62280" d="M2.87 17.17h53.86v1.11H2.87z"/><path transform="rotate(-28.43 29.262 16.739)" fill="#a52281" d="M2.34 16.19H56.2v1.11H2.34z"/><path transform="rotate(-28.43 28.732 15.764)" fill="#a32282" d="M1.82 15.22h53.86v1.11H1.82z"/><path transform="rotate(-28.43 28.221 14.795)" fill="#a22383" d="M1.29 14.25h53.86v1.11H1.29z"/><path transform="rotate(-28.43 27.691 13.82)" fill="#a12384" d="M.76 13.27h53.86v1.11H.76z"/><path fill="#a02384" d="M3.75 26.16l-.53-.98L49.74 0h1.09l.28.52L3.75 26.16z"/><path fill="#9f2485" d="M3.22 25.18l-.53-.97L47.42 0h2.32L3.22 25.18z"/><path fill="#9e2486" d="M2.69 24.21l-.53-.97L45.09 0h2.33L2.69 24.21z"/><path fill="#9c2487" d="M2.16 23.24l-.52-.98L42.77 0h2.32L2.16 23.24z"/><path fill="#9b2588" d="M1.64 22.26l-.53-.97L40.44 0h2.33L1.64 22.26z"/><path fill="#9a2589" d="M1.11 21.29l-.53-.97L38.12 0h2.32L1.11 21.29z"/><path fill="#99258a" d="M.58 20.32l-.52-.98L35.79 0h2.33L.58 20.32z"/><path fill="#98268b" d="M.06 19.34l-.06-.1v-1.13L33.47 0h2.32L.06 19.34z"/><path fill="#97268c" d="M0 16.86L31.14 0h2.33L0 18.11v-1.25z"/><path fill="#95268d" d="M0 15.6L28.81 0h2.33L0 16.86V15.6z"/><path fill="#94278e" d="M0 14.34L26.49 0h2.32L0 15.6v-1.26z"/><path class="cls-3" d="M0 13.08L24.16 0h2.33L0 14.34v-1.26z"/><path class="cls-3" d="M24.16 0L0 13.08V0h24.16z"/></g></g></g></g></svg>